<svg width="460" height="351" viewBox="0 0 460 351" fill="none" xmlns="http://www.w3.org/2000/svg">
<g clip-path="url(#clip0_2015_1921)">
<path d="M388.945 177.968C418.377 -26.1297 34.2783 6.11612 81.4973 151.636C109.338 237.438 189.29 167.501 243.637 193.944C274.08 208.751 270.576 252.678 315.063 253.662C355.209 254.545 383.877 213.092 388.945 177.968Z" fill="#F13544"/>
<path opacity="0.9" d="M388.945 177.968C418.377 -26.1297 34.2783 6.11612 81.4973 151.636C109.338 237.438 189.29 167.501 243.637 193.944C274.08 208.751 270.576 252.678 315.063 253.662C355.209 254.545 383.877 213.092 388.945 177.968Z" fill="white"/>
<path d="M229.933 350.123C328.42 350.123 408.259 345.462 408.259 339.712C408.259 333.962 328.42 329.301 229.933 329.301C131.446 329.301 51.6061 333.962 51.6061 339.712C51.6061 345.462 131.446 350.123 229.933 350.123Z" fill="#F5F5F5"/>
<path opacity="0.7" d="M322.246 276.747H208.899C205.134 276.769 201.406 276.018 197.944 274.539C194.482 273.061 191.36 270.887 188.773 268.153C186.186 265.418 184.189 262.181 182.904 258.643C181.62 255.104 181.076 251.34 181.307 247.582L191.001 62.5693C191.801 46.5292 205.606 33.4046 221.655 33.4046H335.003C338.771 33.3761 342.505 34.1228 345.972 35.5984C349.44 37.074 352.566 39.2469 355.158 41.9821C357.75 44.7173 359.752 47.9564 361.039 51.498C362.327 55.0396 362.872 58.8081 362.641 62.5693L352.938 247.582C352.101 263.623 338.286 276.747 322.246 276.747Z" fill="#F13544"/>
<path d="M255.308 22.7449H248.254V23.6646H255.308V22.7449Z" fill="#F13544"/>
<path d="M242.23 22.7449H217.7V23.6646H242.23V22.7449Z" fill="#F13544"/>
<path d="M178.748 85.8322L178.379 92.8032L179.298 92.8518L179.667 85.8808L178.748 85.8322Z" fill="#F13544"/>
<path opacity="0.6" d="M315.725 270.235H202.341C198.577 270.258 194.849 269.506 191.388 268.029C187.927 266.551 184.806 264.378 182.219 261.644C179.632 258.911 177.634 255.675 176.349 252.138C175.064 248.6 174.52 244.837 174.749 241.08L184.452 56.0577C185.289 40.0176 199.103 26.893 215.144 26.893H328.482C332.25 26.8645 335.984 27.6112 339.451 29.0868C342.919 30.5624 346.045 32.7353 348.637 35.4705C351.23 38.2057 353.231 41.4448 354.519 44.9864C355.806 48.528 356.351 52.2965 356.12 56.0577L346.426 241.08C345.58 257.111 331.765 270.235 315.725 270.235Z" fill="#F13544"/>
<mask id="mask0_2015_1921" style="mask-type:luminance" maskUnits="userSpaceOnUse" x="174" y="26" width="183" height="245">
<path d="M315.725 270.235H202.341C198.577 270.258 194.849 269.506 191.388 268.029C187.927 266.551 184.806 264.378 182.219 261.644C179.632 258.911 177.634 255.675 176.349 252.138C175.064 248.6 174.52 244.837 174.749 241.08L184.452 56.0577C185.289 40.0176 199.103 26.893 215.144 26.893H328.482C332.25 26.8645 335.984 27.6112 339.451 29.0868C342.919 30.5624 346.045 32.7353 348.637 35.4705C351.23 38.2057 353.231 41.4448 354.519 44.9864C355.806 48.528 356.351 52.2965 356.12 56.0577L346.426 241.08C345.58 257.111 331.765 270.235 315.725 270.235Z" fill="white"/>
</mask>
<g mask="url(#mask0_2015_1921)">
<path d="M223.578 244.051C196.629 244.051 171.833 233.557 153.752 214.509C135.67 195.461 126.436 170.031 127.852 143.027C128.839 125.107 134.395 107.737 143.993 92.5709C153.391 77.7055 166.223 65.3154 181.408 56.4439C181.464 56.4209 181.527 56.4209 181.583 56.4439C181.644 56.4613 181.696 56.5006 181.73 56.5543L191.01 74.2591C191.341 74.0751 191.672 73.8912 192.012 73.7164L192.371 73.5141C192.428 73.4958 192.489 73.4958 192.546 73.5141C192.576 73.523 192.604 73.5383 192.628 73.5589C192.652 73.5796 192.671 73.605 192.684 73.6337L195.222 78.4622C195.249 78.515 195.254 78.5759 195.237 78.6324C195.22 78.6889 195.182 78.7367 195.13 78.7658C171.521 91.9639 155.986 116.603 154.607 143.083C153.558 162.93 160.318 181.592 173.636 195.618C180.244 202.563 188.21 208.075 197.039 211.81C205.868 215.546 215.371 217.426 224.957 217.332C224.988 217.332 225.02 217.338 225.048 217.351C225.077 217.363 225.102 217.382 225.123 217.406C225.145 217.427 225.163 217.453 225.174 217.481C225.185 217.51 225.19 217.541 225.187 217.572L223.807 243.876C223.797 243.928 223.767 243.974 223.725 244.006C223.683 244.038 223.63 244.054 223.578 244.051ZM181.426 56.9681C150.496 75.0868 130.142 108.05 128.303 143.046C126.895 169.93 136.056 195.195 154.055 214.187C172.054 233.179 196.593 243.536 223.338 243.618L224.69 217.783C215.083 217.842 205.565 215.934 196.723 212.176C187.881 208.417 179.902 202.889 173.277 195.93C159.877 181.803 153.043 163.022 154.119 143.055C155.508 116.493 171.042 91.7616 194.68 78.4622L192.362 74.0383L192.196 74.1303C191.801 74.3419 191.396 74.5534 191.01 74.7833C190.951 74.8069 190.885 74.8069 190.826 74.7833C190.768 74.7655 190.718 74.726 190.688 74.673L181.426 56.9681Z" fill="#F13544"/>
<path d="M230.126 253.644C230.06 253.643 229.997 253.617 229.951 253.57C229.931 253.546 229.916 253.518 229.906 253.488C229.897 253.458 229.893 253.427 229.896 253.395L231.367 225.261C231.372 225.203 231.398 225.149 231.441 225.11C231.484 225.071 231.54 225.049 231.597 225.049C275.423 225.049 312.948 189.391 315.247 145.557C315.252 145.499 315.278 145.445 315.32 145.406C315.363 145.367 315.419 145.345 315.477 145.345H322.173C322.202 145.344 322.232 145.349 322.26 145.359C322.288 145.37 322.313 145.386 322.335 145.406C322.356 145.427 322.373 145.452 322.385 145.479C322.396 145.507 322.403 145.536 322.402 145.566C322.458 147.847 322.402 150.165 322.32 152.418H343.004C343.036 152.417 343.067 152.423 343.096 152.436C343.124 152.449 343.15 152.468 343.17 152.491C343.212 152.543 343.235 152.608 343.234 152.675C339.973 179.154 327.578 203.666 308.183 221.986C287.002 242.101 258.555 253.644 230.126 253.644ZM231.818 225.509L230.365 253.184C258.601 253.119 286.836 241.632 307.862 221.646C327.119 203.467 339.452 179.155 342.747 152.878H322.081C322.046 152.878 322.012 152.869 321.982 152.853C321.951 152.837 321.925 152.814 321.906 152.786C321.883 152.765 321.865 152.74 321.853 152.711C321.842 152.682 321.838 152.651 321.841 152.62C321.961 150.358 321.989 148.022 321.943 145.787H315.688C313.279 189.695 275.717 225.389 231.818 225.509Z" fill="#F13544"/>
<path d="M322.173 145.805C322.112 145.803 322.055 145.778 322.013 145.735C321.97 145.692 321.945 145.635 321.943 145.575C320.775 99.101 283.314 62.6981 236.619 62.6981C221.243 62.7344 206.116 66.5834 192.592 73.9004C192.566 73.9163 192.536 73.9265 192.506 73.9305C192.475 73.9344 192.445 73.932 192.415 73.9233C192.386 73.9147 192.358 73.9 192.335 73.8802C192.312 73.8604 192.293 73.836 192.279 73.8084C192.252 73.7543 192.246 73.692 192.264 73.634C192.281 73.5759 192.319 73.5265 192.371 73.4957C205.963 66.1425 221.166 62.2746 236.619 62.2382C259.025 61.9796 280.623 70.5978 296.696 86.2106C312.769 101.823 322.01 123.162 322.403 145.566C322.404 145.596 322.399 145.626 322.389 145.655C322.378 145.683 322.362 145.709 322.342 145.731C322.321 145.753 322.297 145.771 322.269 145.784C322.242 145.797 322.212 145.804 322.182 145.805H322.173Z" fill="#F13544"/>
<path d="M353.913 152.878H343.005C342.944 152.878 342.885 152.853 342.842 152.81C342.799 152.767 342.775 152.709 342.775 152.648C342.775 152.587 342.799 152.528 342.842 152.485C342.885 152.442 342.944 152.418 343.005 152.418H353.692C354.819 131.392 350.287 110.449 340.567 91.7707C326.321 64.6662 302.012 44.8644 272.112 35.9982C240.307 26.5618 206.452 30.4798 176.754 47.035L181.73 56.5082C181.756 56.5634 181.76 56.6266 181.741 56.6847C181.723 56.7429 181.682 56.7916 181.629 56.8209C181.601 56.8352 181.572 56.8438 181.541 56.8464C181.511 56.849 181.48 56.8455 181.451 56.8361C181.422 56.8267 181.395 56.8115 181.372 56.7916C181.348 56.7716 181.329 56.7472 181.316 56.7198L176.248 47.0534C176.234 47.0275 176.225 46.999 176.222 46.9696C176.218 46.9402 176.221 46.9105 176.23 46.8821C176.238 46.8538 176.253 46.8275 176.272 46.8048C176.29 46.7821 176.314 46.7634 176.34 46.7499C191.156 38.4058 207.511 33.1526 224.414 31.3076C240.48 29.5167 256.742 30.9615 272.24 35.5567C302.261 44.4597 326.67 64.3443 340.972 91.5592C350.766 110.374 355.316 131.478 354.143 152.657C354.14 152.716 354.115 152.772 354.072 152.814C354.029 152.855 353.972 152.878 353.913 152.878Z" fill="#F13544"/>
<path d="M190.918 74.7834H190.853C190.795 74.7655 190.746 74.7261 190.716 74.673L181.316 56.7566C181.288 56.7017 181.283 56.638 181.302 56.5793C181.321 56.5207 181.362 56.472 181.417 56.4439C181.472 56.4159 181.536 56.4108 181.594 56.4297C181.653 56.4487 181.702 56.4902 181.73 56.5451L191.01 74.2499C191.341 74.066 191.672 73.882 192.012 73.7073L192.371 73.5049C192.398 73.4907 192.428 73.482 192.458 73.4794C192.489 73.4768 192.52 73.4803 192.549 73.4898C192.578 73.4992 192.605 73.5143 192.628 73.5343C192.651 73.5543 192.67 73.5787 192.684 73.6061C192.698 73.632 192.707 73.6604 192.71 73.6899C192.713 73.7193 192.711 73.749 192.702 73.7773C192.693 73.8057 192.679 73.832 192.66 73.8547C192.641 73.8774 192.618 73.8961 192.592 73.9096L192.224 74.112C191.828 74.3235 191.424 74.535 191.037 74.765C191 74.7805 190.959 74.7868 190.918 74.7834Z" fill="#F13544"/>
<g opacity="0.3">
<path d="M223.578 244.051C196.629 244.051 171.833 233.557 153.752 214.509C135.67 195.461 126.436 170.031 127.852 143.027C128.839 125.107 134.395 107.737 143.993 92.5709C153.391 77.7055 166.223 65.3154 181.408 56.4439C181.464 56.4209 181.527 56.4209 181.583 56.4439C181.644 56.4613 181.696 56.5006 181.73 56.5543L191.01 74.2591C191.341 74.0751 191.672 73.8912 192.012 73.7164L192.371 73.5141C192.428 73.4958 192.489 73.4958 192.546 73.5141C192.576 73.523 192.604 73.5383 192.628 73.5589C192.652 73.5796 192.671 73.605 192.684 73.6337L195.222 78.4622C195.249 78.515 195.254 78.5759 195.237 78.6324C195.22 78.6889 195.182 78.7367 195.13 78.7658C171.521 91.9639 155.986 116.603 154.607 143.083C153.558 162.93 160.318 181.592 173.636 195.618C180.244 202.563 188.21 208.075 197.039 211.81C205.868 215.546 215.371 217.426 224.957 217.332C224.988 217.332 225.02 217.338 225.048 217.351C225.077 217.363 225.102 217.382 225.123 217.406C225.145 217.427 225.163 217.453 225.174 217.481C225.185 217.51 225.19 217.541 225.187 217.572L223.807 243.876C223.797 243.928 223.767 243.974 223.725 244.006C223.683 244.038 223.63 244.054 223.578 244.051ZM181.426 56.9681C150.496 75.0868 130.142 108.05 128.303 143.046C126.895 169.93 136.056 195.195 154.055 214.187C172.054 233.179 196.593 243.536 223.338 243.618L224.69 217.783C215.083 217.842 205.565 215.934 196.723 212.176C187.881 208.417 179.902 202.889 173.277 195.93C159.877 181.803 153.043 163.022 154.119 143.055C155.508 116.493 171.042 91.7616 194.68 78.4622L192.362 74.0383L192.196 74.1303C191.801 74.3419 191.396 74.5534 191.01 74.7833C190.951 74.8069 190.885 74.8069 190.826 74.7833C190.768 74.7655 190.718 74.726 190.688 74.673L181.426 56.9681Z" fill="white"/>
<path d="M230.126 253.644C230.06 253.643 229.997 253.617 229.951 253.57C229.931 253.546 229.916 253.518 229.906 253.488C229.897 253.458 229.893 253.427 229.896 253.395L231.367 225.261C231.372 225.203 231.398 225.149 231.441 225.11C231.484 225.071 231.54 225.049 231.597 225.049C275.423 225.049 312.948 189.391 315.247 145.557C315.252 145.499 315.278 145.445 315.32 145.406C315.363 145.367 315.419 145.345 315.477 145.345H322.173C322.202 145.344 322.232 145.349 322.26 145.359C322.288 145.37 322.313 145.386 322.335 145.406C322.356 145.427 322.373 145.452 322.385 145.479C322.396 145.507 322.403 145.536 322.402 145.566C322.458 147.847 322.402 150.165 322.32 152.418H343.004C343.036 152.417 343.067 152.423 343.096 152.436C343.124 152.449 343.15 152.468 343.17 152.491C343.212 152.543 343.235 152.608 343.234 152.675C339.973 179.154 327.578 203.666 308.183 221.986C287.002 242.101 258.555 253.644 230.126 253.644ZM231.818 225.509L230.365 253.184C258.601 253.119 286.836 241.632 307.862 221.646C327.119 203.467 339.452 179.155 342.747 152.878H322.081C322.046 152.878 322.012 152.869 321.982 152.853C321.951 152.837 321.925 152.814 321.906 152.786C321.883 152.765 321.865 152.74 321.853 152.711C321.842 152.682 321.838 152.651 321.841 152.62C321.961 150.358 321.989 148.022 321.943 145.787H315.688C313.279 189.695 275.717 225.389 231.818 225.509Z" fill="white"/>
<path d="M322.173 145.805C322.112 145.803 322.055 145.778 322.013 145.735C321.97 145.692 321.945 145.635 321.943 145.575C320.775 99.101 283.314 62.6981 236.619 62.6981C221.243 62.7344 206.116 66.5834 192.592 73.9004C192.566 73.9163 192.536 73.9265 192.506 73.9305C192.475 73.9344 192.445 73.932 192.415 73.9233C192.386 73.9147 192.358 73.9 192.335 73.8802C192.312 73.8604 192.293 73.836 192.279 73.8084C192.252 73.7543 192.246 73.692 192.264 73.634C192.281 73.5759 192.319 73.5265 192.371 73.4957C205.963 66.1425 221.166 62.2746 236.619 62.2382C259.025 61.9796 280.623 70.5978 296.696 86.2106C312.769 101.823 322.01 123.162 322.403 145.566C322.404 145.596 322.399 145.626 322.389 145.655C322.378 145.683 322.362 145.709 322.342 145.731C322.321 145.753 322.297 145.771 322.269 145.784C322.242 145.797 322.212 145.804 322.182 145.805H322.173Z" fill="white"/>
<path d="M353.913 152.878H343.005C342.944 152.878 342.885 152.853 342.842 152.81C342.799 152.767 342.775 152.709 342.775 152.648C342.775 152.587 342.799 152.528 342.842 152.485C342.885 152.442 342.944 152.418 343.005 152.418H353.692C354.819 131.392 350.287 110.449 340.567 91.7707C326.321 64.6662 302.012 44.8644 272.112 35.9982C240.307 26.5618 206.452 30.4798 176.754 47.035L181.73 56.5082C181.756 56.5634 181.76 56.6266 181.741 56.6847C181.723 56.7429 181.682 56.7916 181.629 56.8209C181.601 56.8352 181.572 56.8438 181.541 56.8464C181.511 56.849 181.48 56.8455 181.451 56.8361C181.422 56.8267 181.395 56.8115 181.372 56.7916C181.348 56.7716 181.329 56.7472 181.316 56.7198L176.248 47.0534C176.234 47.0275 176.225 46.999 176.222 46.9696C176.218 46.9402 176.221 46.9105 176.23 46.8821C176.238 46.8538 176.253 46.8275 176.272 46.8048C176.29 46.7821 176.314 46.7634 176.34 46.7499C191.156 38.4058 207.511 33.1526 224.414 31.3076C240.48 29.5167 256.742 30.9615 272.24 35.5567C302.261 44.4597 326.67 64.3443 340.972 91.5592C350.766 110.374 355.316 131.478 354.143 152.657C354.14 152.716 354.115 152.772 354.072 152.814C354.029 152.855 353.972 152.878 353.913 152.878Z" fill="white"/>
<path d="M190.918 74.7834H190.853C190.795 74.7655 190.746 74.7261 190.716 74.673L181.316 56.7566C181.288 56.7017 181.283 56.638 181.302 56.5793C181.321 56.5207 181.362 56.472 181.417 56.4439C181.472 56.4159 181.536 56.4108 181.594 56.4297C181.653 56.4487 181.702 56.4902 181.73 56.5451L191.01 74.2499C191.341 74.066 191.672 73.882 192.012 73.7073L192.371 73.5049C192.398 73.4907 192.428 73.482 192.458 73.4794C192.489 73.4768 192.52 73.4803 192.549 73.4898C192.578 73.4992 192.605 73.5143 192.628 73.5343C192.651 73.5543 192.67 73.5787 192.684 73.6061C192.698 73.632 192.707 73.6604 192.71 73.6899C192.713 73.7193 192.711 73.749 192.702 73.7773C192.693 73.8057 192.679 73.832 192.66 73.8547C192.641 73.8774 192.618 73.8961 192.592 73.9096L192.224 74.112C191.828 74.3235 191.424 74.535 191.037 74.765C191 74.7805 190.959 74.7868 190.918 74.7834Z" fill="white"/>
</g>
</g>
<path d="M230.696 205.845L229.776 222.74C194.008 222.74 166.517 193.732 168.394 157.973C169.654 134.005 183.781 113.063 203.73 101.869L211.419 116.502C203.928 120.657 197.606 126.635 193.04 133.883C188.474 141.13 185.811 149.413 185.298 157.964C183.946 184.406 204.263 205.845 230.696 205.845Z" fill="#F13544"/>
<path opacity="0.6" d="M230.696 205.845L229.776 222.74C194.008 222.74 166.517 193.732 168.394 157.973C169.654 134.005 183.781 113.063 203.73 101.869L211.419 116.502C203.928 120.657 197.606 126.635 193.04 133.883C188.474 141.13 185.811 149.413 185.298 157.964C183.946 184.406 204.263 205.845 230.696 205.845Z" fill="black"/>
<path d="M306.951 159.601C305.793 178.228 297.629 195.727 284.1 208.582C270.571 221.437 252.678 228.697 234.016 228.903L234.936 210.821C263.218 210.821 287.361 187.883 288.842 159.601H306.951Z" fill="#F13544"/>
<path opacity="0.3" d="M306.951 159.601C305.793 178.228 297.629 195.727 284.1 208.582C270.571 221.437 252.678 228.697 234.016 228.903L234.936 210.821C263.218 210.821 287.361 187.883 288.842 159.601H306.951Z" fill="black"/>
<path d="M313.564 164.154H293.109C294.783 132.119 270.19 106.211 238.192 106.211C227.882 106.207 217.748 108.878 208.779 113.964L199.481 96.2406C237.861 74.7373 285.512 87.7055 305.084 124.955C311.378 137.023 314.307 150.563 313.564 164.154Z" fill="#FAFAFA"/>
<path d="M311.329 215.18H292.493L290.46 253.975H309.297L311.329 215.18Z" fill="#FAFAFA"/>
<path d="M338.213 202.359H319.377L316.673 253.975H335.509L338.213 202.359Z" fill="#F13544"/>
<path opacity="0.6" d="M338.213 202.359H319.377L316.673 253.975H335.509L338.213 202.359Z" fill="black"/>
<path d="M363.745 215.18H344.908L342.876 253.975H361.712L363.745 215.18Z" fill="#F13544"/>
<path opacity="0.3" d="M363.745 215.18H344.908L342.876 253.975H361.712L363.745 215.18Z" fill="black"/>
<path d="M361.537 257.276H290.286L290.332 256.393H361.583L361.537 257.276Z" fill="#525252"/>
<path opacity="0.8" d="M371.167 93.1412H289.035L291.463 46.7407H373.604L371.167 93.1412Z" fill="#FAFAFA"/>
<path d="M290.516 64.8227L289.035 93.1412H371.167L373.006 57.9799C359.376 57.9799 351.291 73.4957 334.433 73.4957C317.574 73.4957 312.948 64.8227 290.516 64.8227Z" fill="#F13544"/>
<path opacity="0.1" d="M290.516 64.8227L289.035 93.1412H371.167L373.006 57.9799C359.376 57.9799 351.291 73.4957 334.433 73.4957C317.574 73.4957 312.948 64.8227 290.516 64.8227Z" fill="black"/>
<path d="M289.807 78.3611C308.266 78.3611 314.898 68.244 325.263 68.244C335.628 68.244 340.163 78.8853 353.076 78.8853C366.541 78.8853 372.39 70.5158 372.39 70.5158L371.204 93.1595H289.072L289.807 78.3611Z" fill="#F13544"/>
<path opacity="0.5" d="M289.807 78.3611C308.266 78.3611 314.898 68.244 325.263 68.244C335.628 68.244 340.163 78.8853 353.076 78.8853C366.541 78.8853 372.39 70.5158 372.39 70.5158L371.204 93.1595H289.072L289.807 78.3611Z" fill="black"/>
<path d="M127.374 113.973C126.16 115.601 124.808 117.413 123.584 119.188C122.361 120.963 121.129 122.775 119.97 124.596C117.651 128.14 115.622 131.865 113.9 135.734L113.596 136.433L113.449 136.782C113.383 136.927 113.349 137.084 113.348 137.242C113.324 137.992 113.408 138.742 113.596 139.468C114.087 141.405 114.755 143.292 115.592 145.106C117.414 149.08 119.434 152.96 121.644 156.731L117.661 159.877C114.301 156.523 111.305 152.823 108.721 148.84C107.332 146.696 106.178 144.408 105.282 142.016C104.75 140.581 104.419 139.08 104.298 137.555C104.229 136.581 104.298 135.603 104.5 134.649C104.555 134.382 104.638 134.097 104.721 133.83L104.868 133.379L105.162 132.46C105.539 131.255 105.999 130.124 106.441 128.974C106.882 127.824 107.36 126.721 107.94 125.644C108.951 123.446 110.119 121.359 111.306 119.298C112.492 117.238 113.78 115.251 115.123 113.311C115.794 112.336 116.484 111.379 117.183 110.423C117.882 109.466 118.581 108.583 119.409 107.553L127.374 113.973Z" fill="#E58A7B"/>
<path d="M120.2 155.287L125.139 156.134L120.751 163.565C120.751 163.565 117.312 161.91 116.686 158.7L120.2 155.287Z" fill="#E58A7B"/>
<path d="M130.473 158.792L126.564 164.77L120.752 163.565L125.139 156.134L130.473 158.792Z" fill="#E58A7B"/>
<path d="M152.841 77.9197C152.841 78.4623 153.126 78.9038 153.485 78.9038C153.843 78.9038 154.129 78.4623 154.129 77.9197C154.129 77.377 153.843 76.9355 153.485 76.9355C153.126 76.9355 152.841 77.3678 152.841 77.9197Z" fill="#525252"/>
<path d="M153.08 78.9038C153.731 80.5695 154.607 82.1384 155.683 83.5669C155.311 83.833 154.885 84.0145 154.435 84.0988C153.986 84.183 153.523 84.1678 153.08 84.0543V78.9038Z" fill="#DF5753"/>
<path d="M150.91 74.9029C150.858 74.9044 150.808 74.8924 150.762 74.8682C150.717 74.844 150.679 74.8084 150.652 74.765C150.626 74.7318 150.607 74.6937 150.597 74.6529C150.587 74.6121 150.585 74.5696 150.592 74.5281C150.599 74.4865 150.614 74.4469 150.637 74.4117C150.66 74.3765 150.69 74.3465 150.726 74.3235C151.129 74.0141 151.602 73.8072 152.104 73.7207C152.605 73.6342 153.12 73.6706 153.604 73.8269C153.682 73.8595 153.743 73.921 153.776 73.9983C153.808 74.0756 153.81 74.1626 153.779 74.2407C153.766 74.2803 153.745 74.3167 153.717 74.3477C153.689 74.3787 153.655 74.4036 153.617 74.4209C153.579 74.4381 153.538 74.4474 153.496 74.448C153.454 74.4487 153.413 74.4407 153.374 74.4247C152.989 74.3068 152.581 74.2829 152.184 74.3549C151.787 74.4269 151.413 74.5927 151.093 74.8386C151.042 74.881 150.976 74.9038 150.91 74.9029Z" fill="#525252"/>
<path d="M135.247 84.2014C136.221 89.1496 137.187 98.1997 133.729 101.502C133.729 101.502 135.081 106.514 144.269 106.514C154.386 106.514 149.089 101.502 149.089 101.502C143.57 100.186 143.717 96.0935 144.683 92.2583L135.247 84.2014Z" fill="#E58A7B"/>
<path d="M132.441 103.222C131.715 101.64 130.924 99.8185 132.57 99.2483C134.409 98.6229 144.315 97.9883 147.736 99.1563C148.188 99.2814 148.61 99.4948 148.978 99.7841C149.346 100.073 149.654 100.433 149.882 100.842C150.11 101.251 150.255 101.701 150.309 102.166C150.362 102.631 150.322 103.103 150.192 103.553L132.441 103.222Z" fill="#F13544"/>
<path d="M111.131 333.973C110.537 333.97 109.946 333.905 109.365 333.78C109.335 333.774 109.308 333.76 109.287 333.739C109.265 333.717 109.251 333.69 109.246 333.66C109.24 333.629 109.242 333.597 109.254 333.568C109.265 333.539 109.285 333.513 109.31 333.495C109.393 333.439 111.26 332.17 112.244 332.391C112.35 332.413 112.449 332.458 112.535 332.523C112.621 332.589 112.691 332.672 112.741 332.768C112.819 332.88 112.862 333.013 112.862 333.15C112.862 333.286 112.819 333.42 112.741 333.531C112.515 333.708 112.257 333.838 111.98 333.914C111.704 333.989 111.415 334.01 111.131 333.973ZM109.816 333.55C110.828 333.715 112.207 333.715 112.492 333.329C112.492 333.329 112.612 333.182 112.492 332.924C112.463 332.868 112.421 332.819 112.37 332.781C112.319 332.743 112.26 332.716 112.198 332.704C111.336 332.748 110.506 333.049 109.816 333.568V333.55Z" fill="#F13544"/>
<path d="M109.448 333.807C109.421 333.816 109.392 333.816 109.365 333.807C109.34 333.793 109.319 333.771 109.306 333.745C109.293 333.719 109.288 333.689 109.292 333.66C109.292 333.577 109.457 331.628 110.211 330.984C110.306 330.907 110.415 330.849 110.531 330.814C110.648 330.78 110.771 330.768 110.892 330.781C111.014 330.781 111.132 330.823 111.226 330.901C111.319 330.978 111.384 331.085 111.407 331.204C111.545 331.959 110.193 333.43 109.494 333.817L109.448 333.807ZM110.809 331.048C110.675 331.051 110.545 331.099 110.441 331.186C109.971 331.796 109.693 332.533 109.641 333.301C110.34 332.777 111.205 331.664 111.122 331.214C111.122 331.214 111.122 331.076 110.883 331.048H110.809Z" fill="#F13544"/>
<path d="M151.701 333.973C151.006 333.973 150.313 333.909 149.631 333.78C149.598 333.776 149.568 333.761 149.544 333.738C149.521 333.714 149.506 333.684 149.502 333.651C149.497 333.619 149.501 333.587 149.515 333.557C149.528 333.528 149.549 333.503 149.576 333.485C149.677 333.43 152.041 332.087 153.163 332.391C153.269 332.415 153.369 332.46 153.456 332.525C153.543 332.59 153.616 332.673 153.669 332.768C153.742 332.87 153.782 332.992 153.782 333.117C153.782 333.243 153.742 333.365 153.669 333.467C153.402 333.872 152.565 333.973 151.701 333.973ZM150.146 333.55C151.415 333.724 153.117 333.697 153.43 333.274C153.43 333.219 153.503 333.127 153.43 332.924C153.396 332.868 153.351 332.819 153.297 332.781C153.243 332.742 153.182 332.716 153.117 332.704C152.344 332.52 150.836 333.2 150.146 333.568V333.55Z" fill="#F13544"/>
<path d="M149.659 333.807C149.629 333.816 149.597 333.816 149.567 333.807C149.544 333.791 149.526 333.768 149.514 333.742C149.503 333.717 149.499 333.688 149.502 333.66C149.562 332.702 149.93 331.789 150.551 331.057C150.674 330.946 150.821 330.864 150.98 330.816C151.139 330.768 151.306 330.756 151.471 330.781C151.912 330.827 152.041 331.048 152.068 331.232C152.188 331.995 150.578 333.458 149.76 333.816L149.659 333.807ZM151.305 331.048C151.101 331.046 150.903 331.121 150.753 331.26C150.235 331.838 149.913 332.566 149.833 333.338C150.661 332.841 151.765 331.692 151.673 331.232C151.673 331.232 151.673 331.085 151.36 331.048H151.305Z" fill="#F13544"/>
<path d="M142.227 333.642H148.987L149.659 317.997H142.899L142.227 333.642Z" fill="#E58A7B"/>
<path d="M101.658 333.642H108.418L111.812 317.997H105.061L101.658 333.642Z" fill="#E58A7B"/>
<path d="M108.896 332.86H101.308C101.173 332.861 101.042 332.908 100.937 332.993C100.831 333.078 100.758 333.197 100.729 333.329L99.3954 339.335C99.3649 339.481 99.3678 339.632 99.4039 339.777C99.44 339.922 99.5083 340.057 99.6038 340.172C99.6992 340.287 99.8194 340.379 99.9553 340.441C100.091 340.503 100.239 340.534 100.389 340.53C103.038 340.484 104.325 340.328 107.664 340.328C109.715 340.328 113.946 340.549 116.788 340.549C119.629 340.549 119.988 337.79 118.829 337.486C113.624 336.346 111.665 334.773 109.991 333.283C109.693 333.008 109.301 332.857 108.896 332.86Z" fill="#525252"/>
<path d="M148.941 332.86H141.583C141.448 332.861 141.317 332.908 141.212 332.993C141.106 333.078 141.033 333.197 141.004 333.329L139.67 339.335C139.638 339.48 139.64 339.63 139.674 339.774C139.708 339.919 139.775 340.053 139.869 340.168C139.963 340.283 140.081 340.376 140.216 340.438C140.35 340.501 140.497 340.533 140.645 340.53C143.303 340.484 147.148 340.328 150.496 340.328C154.404 340.328 157.789 340.549 162.369 340.549C165.129 340.549 165.919 337.79 164.761 337.486C159.472 336.327 155.159 336.208 150.588 333.393C150.101 333.062 149.53 332.877 148.941 332.86Z" fill="#525252"/>
<path d="M157.872 105.355C161.827 107.305 165.938 109.301 169.994 111.168C174.05 113.035 178.152 114.847 182.226 116.401L183.744 116.944L184.13 117.082H184.222C184.222 117.082 184.222 117.082 184.268 117.128C184.818 117.185 185.374 117.119 185.896 116.935C187.725 116.324 189.473 115.494 191.102 114.461C194.819 112.126 198.391 109.567 201.798 106.799L205.523 110.239C202.685 114.165 199.384 117.735 195.691 120.871C193.665 122.621 191.398 124.071 188.959 125.175C187.361 125.899 185.627 126.275 183.873 126.279C183.317 126.269 182.763 126.21 182.217 126.104L181.776 126.003L181.472 125.92L181.031 125.801L179.265 125.313C174.712 123.95 170.241 122.329 165.874 120.457C161.532 118.618 157.357 116.65 153.135 114.415L157.872 105.355Z" fill="#E58A7B"/>
<path d="M121.634 103.028C115.297 104.482 108.032 121.745 108.032 121.745L120.751 130.464C123.918 125.927 126.728 121.151 129.158 116.181C132.91 108.28 128.109 101.548 121.634 103.028Z" fill="#525252"/>
<path d="M126.169 114.037L120.154 130.05L120.752 130.464C120.752 130.464 123.354 126.785 126.169 121.883V114.037Z" fill="#F13544"/>
<path opacity="0.8" d="M126.169 114.037L120.154 130.05L120.752 130.464C120.752 130.464 123.354 126.785 126.169 121.883V114.037Z" fill="black"/>
<path d="M159.481 103.378C159.481 103.378 166.674 111.499 159.886 161.781H123.741C123.492 156.262 126.978 129.167 121.635 103.028C125.629 102.259 129.669 101.749 133.729 101.502C138.845 101.207 143.973 101.207 149.089 101.502C152.596 101.855 156.071 102.482 159.481 103.378Z" fill="#525252"/>
<path d="M162.645 118.848L153.954 117.008C154.083 117.165 159.472 123.925 162.774 128.128C162.838 124.541 162.792 121.515 162.645 118.848Z" fill="#F13544"/>
<path opacity="0.8" d="M162.645 118.848L153.954 117.008C154.083 117.165 159.472 123.925 162.774 128.128C162.838 124.541 162.792 121.515 162.645 118.848Z" fill="black"/>
<path d="M148.15 112.373C150.137 118.517 170.224 125.249 170.224 125.249L176.202 111.076C171.161 108.019 165.809 105.51 160.236 103.589C152.087 100.996 145.961 105.631 148.15 112.373Z" fill="#525252"/>
<path d="M201.228 107.719L203.205 100.867L211.069 104.426C211.069 104.426 209.331 109.742 204.576 111.012L201.228 107.719Z" fill="#E58A7B"/>
<path d="M207.914 95.1554L213.258 100.425L211.069 104.39L203.205 100.83L207.914 95.1554Z" fill="#E58A7B"/>
<path d="M149.659 318.006L149.309 326.063H142.549L142.899 318.006H149.659Z" fill="#CF6F64"/>
<path d="M105.052 318.006H111.812L110.064 326.063H103.304L105.052 318.006Z" fill="#CF6F64"/>
<path d="M134.667 76.7607C135.072 83.4564 134.971 87.3928 138.346 90.8326C143.432 96.0015 151.691 92.9296 153.292 86.234C154.726 80.2189 153.816 70.2858 147.258 67.6186C145.816 67.0259 144.246 66.812 142.697 66.9972C141.149 67.1824 139.674 67.7606 138.412 68.6769C137.15 69.5931 136.144 70.8168 135.488 72.2317C134.833 73.6467 134.55 75.2057 134.667 76.7607Z" fill="#E58A7B"/>
<path d="M147.672 72.3092C152.721 73.7992 156.952 66.6345 156.17 71.7022C155.389 76.7699 160.898 76.2181 160.898 76.2181C160.898 76.2181 156.575 74.581 161.716 70.3134C167.998 65.0986 159.077 61.8979 155.168 64.7307C149.907 68.5567 148.877 61.8059 142.099 59.994C137.5 58.78 131.844 61.668 131.742 64.9882C131.614 69.0442 128.128 65.7792 127.87 71.8126C127.696 75.749 132.386 88.7264 137.445 89.1679C145.06 89.8393 147.617 80.1821 147.672 72.3092Z" fill="#525252"/>
<path d="M143.699 78.7106C144.059 80.3451 144.952 81.8137 146.237 82.8862C147.939 84.2658 149.3 83.0334 149.263 81.0467C149.217 79.2533 148.288 76.3745 146.375 75.7675C144.462 75.1605 143.267 76.7516 143.699 78.7106Z" fill="#E58A7B"/>
<path d="M133.214 68.7591C132.389 67.5074 131.889 66.07 131.759 64.5766C131.629 63.0832 131.873 61.581 132.469 60.2056C132.469 60.2056 125.277 65.6228 133.214 68.7591Z" fill="#525252"/>
<path d="M127.456 68.0969C128.169 67.7951 128.947 67.6782 129.717 67.757C130.487 67.8357 131.225 68.1077 131.862 68.5475C131.862 68.5475 129.82 64.3811 127.456 68.0969Z" fill="#525252"/>
<path d="M147.065 161.781C147.065 161.781 139.394 213.414 135.2 232.802C130.602 253.956 113.228 324.555 113.228 324.555H100.83C100.83 324.555 112.29 255.648 114.966 234.642C117.818 211.878 123.787 161.744 123.787 161.744L147.065 161.781Z" fill="#F13544"/>
<path d="M115.187 319.947C115.242 319.947 113.909 324.702 113.909 324.702H99.984L100.242 320.462L115.187 319.947Z" fill="#F13544"/>
<path opacity="0.2" d="M115.187 319.947C115.242 319.947 113.909 324.702 113.909 324.702H99.984L100.242 320.462L115.187 319.947Z" fill="black"/>
<path d="M142.218 180.175C133.352 181.914 134.29 214.978 135.357 231.984C137.96 219.926 141.639 196.832 144.214 180.378C143.591 180.085 142.887 180.014 142.218 180.175Z" fill="#F13544"/>
<path opacity="0.2" d="M142.218 180.175C133.352 181.914 134.29 214.978 135.357 231.984C137.96 219.926 141.639 196.832 144.214 180.378C143.591 180.085 142.887 180.014 142.218 180.175Z" fill="black"/>
<path d="M159.886 161.781C159.886 161.781 160.806 212.292 160.079 232.903C159.316 254.333 151.802 324.509 151.802 324.509H140.388C140.388 324.509 139.965 255.584 139.468 234.541C138.916 211.593 136.148 161.781 136.148 161.781H159.886Z" fill="#F13544"/>
<path d="M149.447 316.286C149.416 316.282 149.388 316.266 149.368 316.243C149.348 316.219 149.336 316.189 149.337 316.158C151.36 296.733 156.115 249.744 156.695 232.894C157.311 215.631 156.75 177.076 156.566 165.662C156.566 165.648 156.569 165.633 156.574 165.62C156.58 165.606 156.588 165.594 156.598 165.584C156.608 165.574 156.621 165.566 156.634 165.56C156.647 165.554 156.662 165.552 156.676 165.552C156.706 165.552 156.736 165.563 156.758 165.583C156.78 165.604 156.793 165.632 156.796 165.662C156.98 177.067 157.541 215.631 156.925 232.904C156.327 249.762 151.572 296.76 149.567 316.185C149.566 316.2 149.562 316.214 149.555 316.227C149.548 316.24 149.539 316.251 149.528 316.261C149.517 316.27 149.504 316.277 149.49 316.282C149.476 316.286 149.462 316.288 149.447 316.286Z" fill="#F13544"/>
<path opacity="0.2" d="M149.447 316.286C149.416 316.282 149.388 316.266 149.368 316.243C149.348 316.219 149.336 316.189 149.337 316.158C151.36 296.733 156.115 249.744 156.695 232.894C157.311 215.631 156.75 177.076 156.566 165.662C156.566 165.648 156.569 165.633 156.574 165.62C156.58 165.606 156.588 165.594 156.598 165.584C156.608 165.574 156.621 165.566 156.634 165.56C156.647 165.554 156.662 165.552 156.676 165.552C156.706 165.552 156.736 165.563 156.758 165.583C156.78 165.604 156.793 165.632 156.796 165.662C156.98 177.067 157.541 215.631 156.925 232.904C156.327 249.762 151.572 296.76 149.567 316.185C149.566 316.2 149.562 316.214 149.555 316.227C149.548 316.24 149.539 316.251 149.528 316.261C149.517 316.27 149.504 316.277 149.49 316.282C149.476 316.286 149.462 316.288 149.447 316.286Z" fill="black"/>
<path d="M154.027 319.947C154.082 319.947 153.383 324.702 153.383 324.702H139.459L139.082 320.462L154.027 319.947Z" fill="#F13544"/>
<path opacity="0.2" d="M154.027 319.947C154.082 319.947 153.383 324.702 153.383 324.702H139.459L139.082 320.462L154.027 319.947Z" fill="black"/>
</g>
<defs>
<clipPath id="clip0_2015_1921">
<rect width="459.866" height="350.123" fill="white"/>
</clipPath>
</defs>
</svg>
