<svg width="249" height="86" viewBox="0 0 249 86" fill="none" xmlns="http://www.w3.org/2000/svg">
<g clip-path="url(#clip0_2051_190)">
<path d="M55.3409 0L34.4529 39.1032L31.8157 37.5862L55.3409 0Z" fill="#F13544"/>
<path d="M29.0634 48.4137L5.54492 85.9999L26.433 46.8967L29.0634 48.4137Z" fill="#F13544"/>
<path d="M15.4919 59.6863L17.4259 56.0928L17.9128 55.1962C18.1206 54.8037 18.1973 54.3552 18.1316 53.9162C18.0659 53.4772 17.8613 53.0705 17.5476 52.7556C17.0264 52.3746 16.4692 52.045 15.8841 51.7713L14.0854 50.8004C11.7998 49.5801 5.66664 46.2227 3.3202 44.935C2.6377 44.6116 2.00291 44.1965 1.43357 43.7012C-1.14278 41.0651 -0.0608419 37.1211 3.18496 35.6109C9.50965 31.5884 16.0393 27.8956 22.7476 24.5474C25.1888 23.3271 27.6569 22.154 30.1859 21.082L30.3009 21.291C23.687 26.1211 16.7562 30.5041 9.55483 34.4108C7.75612 35.4221 4.67938 36.9593 2.94828 38.011C2.60833 38.2744 2.32691 38.6052 2.12183 38.9826C1.91675 39.36 1.79248 39.7758 1.75689 40.2035C1.72129 40.6313 1.77515 41.0618 1.91504 41.4677C2.05494 41.8736 2.27783 42.2462 2.5696 42.5618C3.01791 42.973 3.518 43.3243 4.05726 43.6068C6.37666 45.0091 12.3138 48.5958 14.5385 49.9712L16.2831 51.0431C16.916 51.3763 17.5082 51.7813 18.048 52.2499C18.4438 52.6804 18.6887 53.2273 18.7461 53.8084C18.8034 54.3896 18.6699 54.9735 18.3658 55.4726L17.8316 56.3423L15.6677 59.8077L15.4649 59.6863H15.4919Z" fill="#F13544"/>
<path d="M31.9914 23.509C33.8438 23.509 35.3454 22.0119 35.3454 20.165C35.3454 18.3182 33.8438 16.821 31.9914 16.821C30.1391 16.821 28.6375 18.3182 28.6375 20.165C28.6375 22.0119 30.1391 23.509 31.9914 23.509Z" fill="#F13544"/>
<path d="M45.3937 26.3136L43.4665 29.9071L42.9864 30.797C42.7739 31.1869 42.6927 31.6346 42.7548 32.074C42.8169 32.5135 43.019 32.9214 43.3313 33.2376C43.8502 33.6185 44.405 33.9481 44.988 34.2219L46.7799 35.1927C49.0655 36.4063 55.1852 39.757 57.5316 41.0447C58.218 41.3681 58.8499 41.7956 59.4047 42.3122C61.7309 44.564 60.9735 48.7305 58.0523 50.1665C57.7818 50.3284 56.186 51.3127 55.8749 51.5149C50.1278 55.1521 44.1939 58.4871 38.0974 61.5065C35.6631 62.72 33.2017 63.8931 30.6592 64.9583L30.5442 64.7561C38.8046 58.7534 47.5175 53.3957 56.6052 48.7305C56.8149 48.5957 57.2815 48.3867 57.464 48.2586C57.8615 48.0168 58.2009 47.6908 58.458 47.3038C58.7152 46.9168 58.884 46.4782 58.9524 46.019C59.0207 45.5598 58.9871 45.0912 58.8537 44.6464C58.7204 44.2015 58.4907 43.7914 58.1808 43.4448C57.4032 42.6021 50.8101 38.9008 49.7417 38.1727L44.5214 34.9703C43.888 34.6386 43.2976 34.231 42.7633 33.7567C42.3712 33.3253 42.1296 32.7789 42.0748 32.1992C42.0199 31.6196 42.1547 31.0378 42.459 30.5408L42.9932 29.6778L45.1503 26.2192L45.3531 26.3339L45.3937 26.3136Z" fill="#F13544"/>
<path d="M30.4428 48.7104C33.606 48.7104 36.1703 46.1537 36.1703 43C36.1703 39.8462 33.606 37.2896 30.4428 37.2896C27.2796 37.2896 24.7153 39.8462 24.7153 43C24.7153 46.1537 27.2796 48.7104 30.4428 48.7104Z" stroke="#F13544" stroke-width="2.1" stroke-miterlimit="10"/>
<path d="M28.9079 69.179C30.7603 69.179 32.2619 67.6818 32.2619 65.835C32.2619 63.9881 30.7603 62.491 28.9079 62.491C27.0556 62.491 25.554 63.9881 25.554 65.835C25.554 67.6818 27.0556 69.179 28.9079 69.179Z" fill="#F13544"/>
<path d="M71.5765 42.7237C71.5723 42.8854 71.6022 43.0462 71.6644 43.1956C71.7437 43.3611 71.8679 43.5012 72.0228 43.6001C72.2533 43.7608 72.4977 43.9007 72.7531 44.0181C73.0574 44.1664 73.4293 44.3282 73.9229 44.5103C74.5991 44.7597 75.2077 45.0159 75.7284 45.2586H67.8235C67.7083 45.0739 67.6088 44.88 67.526 44.6788C67.2947 44.0628 67.1845 43.4082 67.2014 42.7506C67.1763 42.0846 67.3118 41.4223 67.5966 40.8193C67.8813 40.2164 68.307 39.6903 68.8379 39.2853C70.1475 38.3672 71.7293 37.9159 73.3279 38.0043C74.2469 38.0022 75.164 38.088 76.0665 38.2605C76.7747 38.3849 77.4713 38.5675 78.1492 38.8066L77.3784 42.2517C76.8262 42.062 76.2641 41.9022 75.6946 41.773C75.0281 41.6296 74.3478 41.5596 73.666 41.5641C72.2662 41.5641 71.5765 41.9551 71.5765 42.7237Z" fill="#373D5D"/>
<path d="M78.8322 49.7621C78.8709 50.4445 78.731 51.1251 78.4264 51.7373C78.1217 52.3495 77.6627 52.8723 77.0944 53.2544C75.9313 54.0432 74.2949 54.441 72.1716 54.441C71.005 54.4645 69.8399 54.3444 68.7027 54.0837C68.0487 53.9335 67.4068 53.7352 66.7822 53.4904L67.526 49.9037C68.2814 50.1922 69.0594 50.4177 69.8522 50.5779C70.6232 50.7452 71.4096 50.8311 72.1986 50.8341C72.784 50.8703 73.3706 50.7877 73.923 50.5914C74.0926 50.51 74.2325 50.378 74.3234 50.2136C74.4143 50.0493 74.4516 49.8609 74.4301 49.6745C74.4128 49.472 74.3407 49.2779 74.2217 49.1129C74.1026 48.9479 73.941 48.8181 73.7539 48.7373C73.1186 48.3796 72.4534 48.0773 71.7659 47.8339C71.1205 47.6012 70.4884 47.3334 69.8725 47.0316C69.3428 46.7794 68.8566 46.4449 68.4322 46.0406C68.1858 45.804 67.974 45.5339 67.8033 45.2383H75.7082L76.3168 45.5484C76.8763 45.8409 77.3835 46.2236 77.8179 46.6811C78.1723 47.0677 78.4357 47.5284 78.5888 48.0294C78.755 48.5919 78.837 49.1758 78.8322 49.7621Z" fill="#010B40"/>
<path d="M96.7856 46.1957C96.8003 47.3414 96.6197 48.4813 96.2514 49.5666C95.9238 50.5347 95.3963 51.4235 94.7029 52.1758C94.0272 52.9033 93.2012 53.476 92.282 53.8545C91.2758 54.2634 90.1971 54.4652 89.1106 54.4478C88.0353 54.4634 86.9679 54.2616 85.973 53.8545C85.0527 53.4744 84.2249 52.902 83.5454 52.1758C82.8528 51.4181 82.3174 50.5314 81.9699 49.5666C81.5853 48.4847 81.3953 47.3435 81.4086 46.1957C81.4086 45.8721 81.4086 45.5619 81.4492 45.2585H85.9663C85.927 45.5693 85.909 45.8824 85.9122 46.1957C85.8547 47.3386 86.1471 48.4719 86.7507 49.4453C87.0066 49.8283 87.3565 50.1397 87.7673 50.3497C88.178 50.5598 88.6358 50.6616 89.0971 50.6454C89.5573 50.6604 90.0137 50.5581 90.4232 50.3481C90.8326 50.1381 91.1815 49.8273 91.4368 49.4453C92.027 48.4671 92.3118 47.3358 92.255 46.1957C92.2582 45.8824 92.2401 45.5693 92.2009 45.2585H96.7315C96.7856 45.5619 96.7856 45.8721 96.7856 46.1957Z" fill="#010B40"/>
<path d="M96.7316 45.2652H92.201C92.145 44.451 91.8821 43.6645 91.4369 42.9797C91.1777 42.6039 90.8271 42.2997 90.4179 42.0958C90.0087 41.8918 89.5543 41.7946 89.0972 41.8133C88.639 41.7935 88.1832 41.8901 87.7728 42.0941C87.3623 42.2981 87.0106 42.6029 86.7508 42.9797C86.2987 43.6627 86.0288 44.4493 85.9664 45.2652H81.4358C81.4994 44.4397 81.6792 43.6272 81.97 42.8516C82.3278 41.8922 82.8751 41.0142 83.5794 40.2694C84.2694 39.5527 85.1004 38.9857 86.0205 38.6042C86.9962 38.204 88.0422 38.0023 89.0972 38.0109C90.1633 38.0005 91.2208 38.2022 92.2078 38.6042C93.1247 38.9842 93.9516 39.5515 94.6354 40.2694C95.329 41.016 95.8648 41.8942 96.2109 42.8516C96.4971 43.6278 96.6723 44.4403 96.7316 45.2652Z" fill="#373D5D"/>
<path d="M112.636 44.3822V45.2653H101.424C102.009 44.9488 102.638 44.7216 103.291 44.5912C104.102 44.4218 104.93 44.3382 105.759 44.3417C106.271 44.3363 106.784 44.3611 107.294 44.4159C107.659 44.451 108.02 44.5141 108.376 44.6046V44.1934C108.393 43.8611 108.342 43.5288 108.226 43.2169C108.109 42.9051 107.93 42.6202 107.7 42.3798C107.023 41.857 106.17 41.6155 105.319 41.7056C104.572 41.7053 103.827 41.7594 103.088 41.8674C102.44 41.9558 101.804 42.1095 101.188 42.3259L100.62 38.7661C100.877 38.692 101.201 38.6043 101.587 38.5167C101.972 38.429 102.398 38.3481 102.851 38.2807C103.304 38.2133 103.791 38.1526 104.291 38.0987C104.792 38.0447 105.312 38.0245 105.826 38.0245C106.934 37.9955 108.04 38.1458 109.099 38.4695C109.893 38.7183 110.613 39.1583 111.196 39.7505C111.732 40.3205 112.116 41.0161 112.311 41.773C112.537 42.6241 112.647 43.5018 112.636 44.3822Z" fill="#373D5D"/>
<path d="M101.424 45.2654L101.181 45.4002C100.571 45.7726 100.064 46.2919 99.7068 46.9104C99.3204 47.6213 99.1291 48.4214 99.1523 49.2296C99.1289 50.0555 99.293 50.876 99.6324 51.6298C99.9343 52.2681 100.401 52.815 100.985 53.2141C101.629 53.6448 102.353 53.9428 103.115 54.0906C104.02 54.2798 104.943 54.3702 105.867 54.3602C107.241 54.3772 108.613 54.2825 109.972 54.0771C111.101 53.8883 112 53.7265 112.622 53.5849V45.2654H101.424ZM108.376 50.8275C108.063 50.8775 107.746 50.9067 107.429 50.9151C107.03 50.9151 106.611 50.9488 106.178 50.9488C105.514 50.9821 104.852 50.8427 104.258 50.5443C104.022 50.3916 103.834 50.1762 103.714 49.9224C103.595 49.6687 103.549 49.3867 103.582 49.1083C103.567 48.7945 103.65 48.4839 103.818 48.2183C103.989 47.973 104.222 47.7775 104.494 47.652C104.799 47.5074 105.126 47.414 105.461 47.3756C105.849 47.3225 106.24 47.2977 106.631 47.3014C106.935 47.3014 107.26 47.3014 107.618 47.3554C107.886 47.3824 108.153 47.4229 108.416 47.4767L108.376 50.8275Z" fill="#010B40"/>
<path d="M138.278 45.2653V54.0298H133.849V45.7507C133.849 45.5822 133.849 45.4136 133.849 45.2585L138.278 45.2653Z" fill="#010B40"/>
<path d="M129.683 45.5147V54.0298H125.247V45.7507C125.247 45.5822 125.247 45.4136 125.247 45.2585H129.683C129.683 45.3462 129.683 45.4271 129.683 45.5147Z" fill="#010B40"/>
<path d="M121.089 45.2585H116.659V54.023H121.089V45.2585Z" fill="#010B40"/>
<path d="M138.278 45.2181V45.2653H133.842C133.869 44.3884 133.681 43.5183 133.294 42.7303C133.09 42.4255 132.807 42.1816 132.474 42.0249C132.142 41.8681 131.773 41.8044 131.407 41.8404C131.07 41.8583 130.736 41.9171 130.413 42.0157C130.04 42.1136 129.683 42.2634 129.352 42.4606C129.495 42.9301 129.586 43.414 129.622 43.9034C129.656 44.3349 129.676 44.7866 129.676 45.2518H125.24C125.269 44.3755 125.084 43.5054 124.699 42.7168C124.495 42.4109 124.21 42.1664 123.877 42.0096C123.543 41.8528 123.173 41.7896 122.806 41.8269C122.519 41.8264 122.232 41.8421 121.947 41.8741C121.65 41.8741 121.359 41.9348 121.082 41.9752V45.2653H116.653V38.9616C117.025 38.8672 117.471 38.7593 117.971 38.6514C118.472 38.5436 119.013 38.4424 119.581 38.3548C120.149 38.2672 120.723 38.1997 121.318 38.1458C121.913 38.0919 122.502 38.0716 123.077 38.0716C124.026 38.0435 124.971 38.1969 125.863 38.5233C126.494 38.7676 127.081 39.1139 127.6 39.5481C128.915 38.6426 130.466 38.1367 132.063 38.0919C133.116 38.0577 134.164 38.2342 135.147 38.611C135.905 38.925 136.567 39.4318 137.067 40.0807C137.556 40.7505 137.891 41.5193 138.048 42.3325C138.219 43.2846 138.296 44.251 138.278 45.2181Z" fill="#373D5D"/>
<path d="M147.15 33.912C147.168 34.2696 147.107 34.6269 146.97 34.958C146.833 35.2891 146.624 35.5858 146.358 35.8267C145.843 36.2739 145.182 36.5203 144.499 36.5203C143.815 36.5203 143.155 36.2739 142.639 35.8267C142.386 35.576 142.184 35.2777 142.047 34.9491C141.91 34.6205 141.839 34.268 141.839 33.912C141.839 33.556 141.91 33.2035 142.047 32.8749C142.184 32.5463 142.386 32.248 142.639 31.9973C143.155 31.55 143.815 31.3037 144.499 31.3037C145.182 31.3037 145.843 31.55 146.358 31.9973C146.624 32.2385 146.832 32.5352 146.969 32.8663C147.106 33.1973 147.167 33.5544 147.15 33.912Z" fill="#373D5D"/>
<path d="M146.737 38.4221H142.308V45.2584H146.737V38.4221Z" fill="#373D5D"/>
<path d="M146.737 45.2585H142.308V54.023H146.737V45.2585Z" fill="#010B40"/>
<path d="M165.759 54.0299H160.66C160.342 53.5175 159.984 52.9512 159.572 52.3242C159.159 51.6972 158.74 51.0769 158.28 50.4499C157.82 49.8229 157.347 49.2229 156.84 48.6498C156.385 48.1221 155.885 47.6348 155.345 47.1936V54.0299H150.882V45.2654H159.152C159.809 45.8652 160.426 46.507 160.998 47.1868C161.634 47.9284 162.249 48.6948 162.844 49.4858C163.44 50.2814 163.98 51.0702 164.481 51.8657C164.981 52.6613 165.407 53.3557 165.759 54.0299Z" fill="#010B40"/>
<path d="M165.536 38.4222C164.481 39.629 163.46 40.7752 162.452 41.8741C161.445 42.973 160.356 44.0989 159.166 45.245H150.882V31.7207L155.318 31.0061V44.0248L156.671 42.555C157.13 42.0426 157.584 41.537 158.023 41.0313L159.254 39.6021C159.639 39.1503 159.971 38.7593 160.248 38.4222H165.536Z" fill="#373D5D"/>
<path d="M180.263 44.3822V45.2653H169.052C169.637 44.9488 170.266 44.7216 170.918 44.5912C171.73 44.4221 172.557 44.3385 173.386 44.3417C173.899 44.3363 174.412 44.3611 174.921 44.4159C175.288 44.4518 175.652 44.5149 176.01 44.6046V44.1934C176.027 43.8611 175.976 43.529 175.859 43.2171C175.743 42.9053 175.564 42.6204 175.334 42.3798C174.657 41.857 173.805 41.6155 172.954 41.7056C172.207 41.7053 171.461 41.7594 170.722 41.8674C170.075 41.9558 169.438 42.1095 168.822 42.3259L168.254 38.7661C168.511 38.692 168.835 38.6043 169.221 38.5167C169.606 38.429 170.032 38.3481 170.485 38.2807C170.938 38.2133 171.425 38.1526 171.932 38.0987C172.44 38.0447 172.947 38.0245 173.461 38.0245C174.569 37.9955 175.674 38.1458 176.734 38.4695C177.527 38.7183 178.247 39.1583 178.83 39.7505C179.366 40.3205 179.75 41.0161 179.946 41.773C180.169 42.6244 180.276 43.5021 180.263 44.3822Z" fill="#373D5D"/>
<path d="M169.052 45.2654L168.808 45.4002C168.198 45.7726 167.691 46.2919 167.334 46.9104C166.95 47.622 166.761 48.422 166.787 49.2296C166.761 50.055 166.923 50.8755 167.26 51.6298C167.562 52.2681 168.029 52.815 168.612 53.2141C169.257 53.6448 169.981 53.9428 170.742 54.0906C171.647 54.2798 172.57 54.3702 173.495 54.3602C174.868 54.3772 176.241 54.2825 177.599 54.0771C178.728 53.8883 179.628 53.7265 180.25 53.5849V45.2654H169.052ZM176.01 50.8275C175.694 50.8771 175.376 50.9063 175.057 50.9151C174.658 50.9151 174.245 50.9488 173.806 50.9488C173.141 50.9821 172.479 50.8427 171.885 50.5443C171.649 50.3916 171.461 50.1762 171.342 49.9224C171.222 49.6687 171.176 49.3867 171.209 49.1083C171.195 48.7945 171.277 48.4839 171.446 48.2183C171.616 47.973 171.85 47.7775 172.122 47.652C172.427 47.5074 172.753 47.414 173.089 47.3756C173.479 47.3223 173.872 47.2975 174.265 47.3014C174.563 47.3014 174.888 47.3014 175.246 47.3554C175.604 47.4093 175.868 47.4363 176.051 47.4767L176.01 50.8275Z" fill="#010B40"/>
<path d="M188.709 45.2654V53.4703C188.709 55.4929 188.209 57.0503 187.195 58.0346C186.18 59.0189 184.727 59.5178 182.82 59.5178C182.408 59.51 181.997 59.4808 181.589 59.4302C181.067 59.3753 180.553 59.2668 180.054 59.1066L180.649 55.5131C180.915 55.6055 181.189 55.6754 181.467 55.7221C181.778 55.7668 182.093 55.7871 182.407 55.7828C182.682 55.8109 182.96 55.7688 183.215 55.6602C183.469 55.5517 183.691 55.3804 183.861 55.1625C184.174 54.6111 184.319 53.9812 184.28 53.3489V45.2654H188.709Z" fill="#010B40"/>
<path d="M189.128 33.912C189.147 34.2696 189.085 34.6269 188.949 34.958C188.812 35.2891 188.603 35.5858 188.337 35.8267C187.822 36.2739 187.161 36.5203 186.478 36.5203C185.794 36.5203 185.134 36.2739 184.618 35.8267C184.116 35.3151 183.835 34.6278 183.835 33.912C183.835 33.1962 184.116 32.5088 184.618 31.9973C185.134 31.55 185.794 31.3037 186.478 31.3037C187.161 31.3037 187.822 31.55 188.337 31.9973C188.603 32.2385 188.811 32.5352 188.948 32.8663C189.085 33.1973 189.146 33.5544 189.128 33.912Z" fill="#373D5D"/>
<path d="M188.716 38.4221H184.287V45.2584H188.716V38.4221Z" fill="#373D5D"/>
<path d="M204.113 45.2654L203.525 46.8834C202.542 49.5128 201.478 52.0635 200.333 54.5355C199.971 55.3227 199.55 56.0821 199.076 56.8076C198.704 57.3858 198.248 57.9061 197.723 58.3515C197.225 58.7546 196.653 59.0569 196.039 59.2414C195.326 59.4356 194.588 59.5287 193.848 59.5178C193.203 59.5242 192.559 59.4609 191.928 59.329C191.434 59.2269 190.95 59.0825 190.481 58.8976L191.252 55.3715C191.651 55.511 192.06 55.6192 192.476 55.6951C192.849 55.756 193.227 55.7854 193.605 55.7828C193.938 55.8047 194.272 55.7593 194.587 55.6492C194.902 55.5392 195.191 55.3667 195.438 55.1423C195.916 54.6355 196.287 54.0368 196.526 53.3827C195.512 51.4005 194.498 49.1802 193.483 46.7216C193.287 46.2497 193.098 45.7643 192.909 45.2654H197.419C197.541 45.6294 197.669 45.9935 197.798 46.3508C198.102 47.2205 198.399 48.0093 198.677 48.724C198.934 48.0093 199.204 47.2205 199.481 46.3508L199.826 45.2654H204.113Z" fill="#010B40"/>
<path d="M206.331 38.4221C205.619 40.8222 204.882 43.101 204.12 45.2584H199.819C199.982 44.7326 200.137 44.1999 200.299 43.6606C200.57 42.7369 200.827 41.8268 201.077 40.9301C201.327 40.0334 201.55 39.1907 201.753 38.4221H206.331Z" fill="#373D5D"/>
<path d="M197.405 45.2653H192.895C192.097 43.1888 191.34 40.9032 190.616 38.429H195.316C195.519 39.1975 195.749 40.0335 195.992 40.937C196.235 41.8404 196.547 42.7438 196.844 43.6674C197.047 44.2001 197.223 44.7327 197.405 45.2653Z" fill="#373D5D"/>
<path d="M211.356 51.6836C211.379 52.0633 211.314 52.4434 211.167 52.7941C211.019 53.1449 210.792 53.457 210.504 53.7061C209.968 54.1593 209.289 54.4081 208.586 54.4081C207.884 54.4081 207.205 54.1593 206.669 53.7061C206.403 53.4406 206.191 53.1254 206.047 52.7783C205.903 52.4313 205.828 52.0593 205.828 51.6836C205.828 51.3079 205.903 50.9359 206.047 50.5888C206.191 50.2418 206.403 49.9265 206.669 49.661C207.207 49.2128 207.886 48.9673 208.586 48.9673C209.287 48.9673 209.966 49.2128 210.504 49.661C210.791 49.9108 211.017 50.223 211.165 50.5736C211.313 50.9242 211.378 51.3039 211.356 51.6836Z" fill="#010B40"/>
<path d="M224.501 38.692L223.757 42.3394C223.365 42.2382 222.898 42.1371 222.364 42.0292C221.794 41.9161 221.214 41.8597 220.633 41.8607C220.301 41.8658 219.969 41.8906 219.639 41.9348C219.342 41.9704 219.049 42.0267 218.76 42.1034V45.2654H214.331V39.2583C215.251 38.9452 216.188 38.6841 217.137 38.4762C218.325 38.2166 219.539 38.0922 220.755 38.1054C220.991 38.1054 221.282 38.1054 221.62 38.1459L222.628 38.2672C222.966 38.3144 223.304 38.3751 223.642 38.4425C223.936 38.4992 224.223 38.5827 224.501 38.692Z" fill="#F25560"/>
<path d="M218.767 45.2585H214.338V54.023H218.767V45.2585Z" fill="#F13544"/>
<path d="M231.736 33.912C231.755 34.2696 231.693 34.6269 231.557 34.958C231.42 35.2891 231.211 35.5858 230.945 35.8267C230.43 36.2739 229.769 36.5203 229.086 36.5203C228.402 36.5203 227.742 36.2739 227.226 35.8267C226.973 35.576 226.771 35.2777 226.634 34.9491C226.497 34.6205 226.426 34.268 226.426 33.912C226.426 33.556 226.497 33.2035 226.634 32.8749C226.771 32.5463 226.973 32.248 227.226 31.9973C227.742 31.55 228.402 31.3037 229.086 31.3037C229.769 31.3037 230.43 31.55 230.945 31.9973C231.211 32.2385 231.419 32.5352 231.556 32.8663C231.693 33.1973 231.754 33.5544 231.736 33.912Z" fill="#F25560"/>
<path d="M231.324 38.4221H226.888V45.2584H231.324V38.4221Z" fill="#F25560"/>
<path d="M231.324 45.2585H226.888V54.023H231.324V45.2585Z" fill="#F13544"/>
<path d="M248.993 45.2653V54.0298H244.557V45.7507C244.557 45.5822 244.557 45.4136 244.557 45.2585L248.993 45.2653Z" fill="#F13544"/>
<path d="M248.993 45.218V45.2652H244.551C244.579 44.3867 244.386 43.5151 243.989 42.7302C243.747 42.4104 243.424 42.1599 243.054 42.0037C242.684 41.8474 242.279 41.7911 241.88 41.8403C241.562 41.8403 241.203 41.8403 240.865 41.8875C240.527 41.9347 240.189 41.9482 239.919 41.9886V45.2652H235.483V38.9615C236.441 38.7027 237.415 38.5001 238.397 38.3547C239.639 38.162 240.894 38.0673 242.15 38.0715C243.277 38.0397 244.401 38.2157 245.463 38.5907C246.28 38.8915 247.004 39.3978 247.567 40.0604C248.094 40.721 248.468 41.4901 248.662 42.3122C248.893 43.2634 249.004 44.2394 248.993 45.218Z" fill="#F25560"/>
<path d="M239.925 45.2585H235.489V54.023H239.925V45.2585Z" fill="#F13544"/>
</g>
<defs>
<clipPath id="clip0_2051_190">
<rect width="249" height="86" fill="white"/>
</clipPath>
</defs>
</svg>
