<svg width="242" height="47" viewBox="0 0 242 47" fill="none" xmlns="http://www.w3.org/2000/svg">
<g clip-path="url(#clip0_2050_156)">
<path d="M4.38387 32.4575V6.62633C4.38519 6.17274 4.5515 5.73518 4.85166 5.39555C5.15182 5.05593 5.56527 4.83753 6.01459 4.78124L40.6294 0.595093L41.864 0.449601L45.3169 0.0263672H0.574463L4.38387 32.4575Z" fill="#F13544"/>
<path d="M42.4977 14.5491V40.3405C42.4978 40.7945 42.332 41.2329 42.0316 41.5728C41.7311 41.9127 41.3169 42.1307 40.867 42.1856L6.25878 46.3982L5.02419 46.5503L1.57129 46.967H46.3071L42.4977 14.5491Z" fill="#F13544"/>
<path d="M0 46.4776V1.65991L0.422534 5.12524L0.567781 6.36191L4.77332 41.0283C4.82952 41.4784 5.04755 41.8925 5.3866 42.1932C5.72565 42.4938 6.16248 42.6604 6.6153 42.6617H32.4031L0 46.4776Z" fill="#F13544"/>
<path d="M46.9739 0.595215V45.4063L46.558 41.9542L46.4061 40.7175L42.2006 6.0511C42.1472 5.60101 41.931 5.18614 41.5927 4.8851C41.2544 4.58405 40.8177 4.41772 40.3652 4.41764H14.5774L46.9739 0.595215Z" fill="#F13544"/>
<path d="M33.3538 21.5524L19.0404 13.2726C18.6984 13.0756 18.3107 12.9721 17.9162 12.9724C17.5217 12.9727 17.1342 13.0769 16.7925 13.2745C16.4508 13.4721 16.167 13.7561 15.9694 14.0982C15.7718 14.4403 15.6674 14.8283 15.6667 15.2235V31.7565C15.6666 32.1519 15.7705 32.5404 15.9681 32.8827C16.1657 33.2251 16.4499 33.5091 16.792 33.7063C17.1342 33.9035 17.5222 34.0068 17.917 34.0059C18.3117 34.0049 18.6992 33.8997 19.0404 33.7008L33.3538 25.4211C33.689 25.2221 33.9668 24.939 34.1597 24.5999C34.3527 24.2607 34.4541 23.8771 34.4541 23.4867C34.4541 23.0963 34.3527 22.7127 34.1597 22.3735C33.9668 22.0344 33.689 21.7514 33.3538 21.5524Z" fill="#F13544"/>
<path d="M67.1764 26.2411C67.026 25.7486 66.7664 25.2965 66.4171 24.9185C66.2637 24.7455 66.0934 24.5882 65.9088 24.449H57.4317C57.8028 24.774 58.2158 25.0475 58.6597 25.2624C59.2623 25.5556 59.8793 25.8183 60.5082 26.0494C61.1923 26.288 61.8549 26.5844 62.4889 26.9355C62.6711 27.0154 62.8285 27.1428 62.9447 27.3046C63.0608 27.4663 63.1314 27.6563 63.1491 27.8548C63.1686 28.0367 63.1323 28.2202 63.0451 28.3809C62.9578 28.5416 62.8236 28.6718 62.6605 28.7542C62.119 28.9471 61.5441 29.0281 60.9704 28.9922C60.2001 28.9893 59.4322 28.9051 58.6795 28.7409C57.9074 28.5847 57.1499 28.3635 56.4149 28.0796L55.6887 31.5978C56.2958 31.8393 56.9204 32.0338 57.5571 32.1798C58.6675 32.4349 59.805 32.5526 60.944 32.5303C63.017 32.5303 64.6192 32.1423 65.7503 31.3664C66.3064 30.9924 66.7558 30.4799 67.0545 29.8793C67.3531 29.2787 67.4907 28.6107 67.4537 27.9407C67.4455 27.3636 67.3521 26.7909 67.1764 26.2411Z" fill="#010B40"/>
<path d="M80.4929 24.449C80.5411 25.5583 80.2634 26.6574 79.6941 27.6101C79.4448 27.9848 79.1041 28.2896 78.7044 28.4956C78.3047 28.7016 77.859 28.802 77.4097 28.7872C76.9593 28.8031 76.5123 28.7033 76.1113 28.4973C75.7103 28.2912 75.3686 27.9858 75.1188 27.6101C74.5386 26.6615 74.2557 25.5603 74.3067 24.449H69.8899C69.8782 25.564 70.0637 26.6723 70.4379 27.7225C70.7769 28.6705 71.3022 29.5407 71.9828 30.2818C72.6443 30.9934 73.4502 31.5549 74.3463 31.9285C76.3265 32.7048 78.526 32.7048 80.5061 31.9285C81.4034 31.5534 82.2111 30.9922 82.8763 30.2818C83.5512 29.5436 84.064 28.6717 84.3815 27.7225C84.7426 26.6694 84.9212 25.5623 84.9097 24.449H80.4929Z" fill="#010B40"/>
<path d="M88.2305 24.449C88.0435 24.6504 87.8796 24.8723 87.7419 25.1103C87.3669 25.8083 87.1824 26.593 87.2071 27.3852C87.1822 28.1949 87.3402 28.9997 87.6693 29.7395C87.964 30.3657 88.4197 30.9021 88.9897 31.2936C89.6188 31.7161 90.3259 32.0084 91.0694 32.1533C91.9528 32.3389 92.8538 32.4276 93.7564 32.4179C95.0976 32.4345 96.4378 32.3416 97.7639 32.1401C98.8665 31.955 99.7445 31.7962 100.352 31.6574V24.449H88.2305ZM96.2124 28.9592C95.9043 29.0078 95.5933 29.0365 95.2815 29.0451C94.892 29.0451 94.4893 29.0782 94.0601 29.0782C93.4114 29.1108 92.7653 28.9741 92.1851 28.6814C91.9549 28.5316 91.7711 28.3203 91.6545 28.0714C91.5378 27.8225 91.4929 27.5459 91.5249 27.2728C91.5144 26.9654 91.5948 26.6617 91.756 26.3999C91.9228 26.1591 92.1507 25.9674 92.4162 25.8443C92.7138 25.7025 93.0328 25.6109 93.3603 25.5732C93.741 25.5209 94.1249 25.4966 94.5091 25.5005C94.7996 25.5005 95.1165 25.5005 95.4664 25.5534C95.8163 25.6063 96.0738 25.6327 96.252 25.6724L96.2124 28.9592Z" fill="#010B40"/>
<path d="M121.102 24.449V32.1004H125.433V24.449H121.102ZM112.705 32.1004H117.035V24.449H112.705V32.1004ZM104.313 32.1004H108.638V24.449H104.313V32.1004Z" fill="#010B40"/>
<path d="M129.355 24.449V32.1004H133.679V24.449H129.355Z" fill="#010B40"/>
<path d="M137.746 24.449V32.1004H142.077V24.449H137.746Z" fill="#010B40"/>
<path d="M149.722 24.449C149.54 24.6538 149.376 24.8752 149.234 25.1103C148.859 25.8083 148.674 26.593 148.699 27.3852C148.674 28.1949 148.832 28.9997 149.161 29.7395C149.457 30.3652 149.912 30.9014 150.482 31.2936C151.109 31.715 151.814 32.0072 152.555 32.1533C153.438 32.3386 154.339 32.4273 155.242 32.4179C156.583 32.4345 157.923 32.3416 159.249 32.1401C160.358 31.955 161.23 31.7962 161.837 31.6574V24.449H149.722ZM157.704 28.9592C157.396 29.0085 157.085 29.0372 156.773 29.0451C156.384 29.0451 155.981 29.0782 155.552 29.0782C154.905 29.1115 154.261 28.9747 153.684 28.6814C153.453 28.5316 153.27 28.3203 153.153 28.0714C153.036 27.8225 152.991 27.5459 153.023 27.2728C153.013 26.9654 153.093 26.6617 153.255 26.3999C153.423 26.1608 153.651 25.9695 153.915 25.8443C154.213 25.7034 154.532 25.6118 154.859 25.5732C155.24 25.5209 155.623 25.4966 156.008 25.5005C156.298 25.5005 156.615 25.5005 156.965 25.5534C157.229 25.5794 157.491 25.6192 157.751 25.6724L157.704 28.9592Z" fill="#010B40"/>
<path d="M174.639 24.449V32.1004H178.97V24.449H174.639ZM165.779 32.1004H170.097V24.449H165.766L165.779 32.1004Z" fill="#010B40"/>
<path d="M192.273 28.2912C191.845 28.4519 191.403 28.5736 190.953 28.6549C190.478 28.7403 189.996 28.7846 189.513 28.7872C188.549 28.7872 187.902 28.516 187.586 27.9737C187.234 27.302 187.068 26.5488 187.104 25.7914V24.4688H182.779V25.8641C182.772 26.775 182.863 27.684 183.05 28.5755C183.208 29.3352 183.542 30.0468 184.027 30.6521C184.526 31.2411 185.163 31.6957 185.882 31.9747C186.822 32.3198 187.819 32.4814 188.82 32.4509C189.61 32.4641 190.398 32.3865 191.17 32.2194C191.765 32.0788 192.347 31.8931 192.913 31.6639L192.273 28.2912Z" fill="#010B40"/>
<path d="M203.021 24.449L202.982 24.5681C202.704 25.4212 202.447 26.1949 202.189 26.8959C201.919 26.1949 201.635 25.4212 201.331 24.5681L201.291 24.449H196.934C196.993 24.6144 197.059 24.7731 197.125 24.9318C198.111 27.3434 199.099 29.5214 200.09 31.4656C199.856 32.1073 199.494 32.6946 199.027 33.1917C198.786 33.4118 198.504 33.581 198.196 33.6889C197.889 33.7969 197.563 33.8414 197.238 33.8199C196.868 33.8222 196.5 33.7934 196.135 33.734C195.73 33.6608 195.333 33.5523 194.947 33.4099L194.188 36.8752C194.645 37.0566 195.118 37.1983 195.6 37.2985C196.217 37.4278 196.846 37.4899 197.475 37.4836C198.198 37.4943 198.918 37.403 199.614 37.2125C200.215 37.0345 200.774 36.7376 201.258 36.3396C201.767 35.8991 202.212 35.3894 202.579 34.8251C203.037 34.1118 203.446 33.3671 203.8 32.5965C204.923 30.1761 205.961 27.6741 206.916 25.0905C206.996 24.8789 207.075 24.6673 207.147 24.4292L203.021 24.449Z" fill="#010B40"/>
<path d="M214.581 29.8056C214.604 30.1774 214.542 30.5496 214.399 30.8935C214.255 31.2374 214.036 31.5439 213.756 31.7895C213.23 32.2297 212.566 32.4708 211.881 32.4708C211.196 32.4708 210.532 32.2297 210.006 31.7895C209.484 31.2619 209.19 30.5488 209.19 29.8056C209.19 29.0624 209.484 28.3493 210.006 27.8216C210.532 27.3815 211.196 27.1404 211.881 27.1404C212.566 27.1404 213.23 27.3815 213.756 27.8216C214.035 28.0679 214.254 28.3745 214.397 28.7183C214.54 29.062 214.603 29.4338 214.581 29.8056Z" fill="#010B40"/>
<path d="M228.129 26.2411C227.981 25.749 227.724 25.2969 227.376 24.9185C227.223 24.7455 227.053 24.5882 226.868 24.449H218.391C218.76 24.7735 219.171 25.047 219.612 25.2624C220.215 25.5556 220.832 25.8183 221.461 26.0494C222.132 26.2881 222.782 26.5846 223.402 26.9355C223.585 27.0148 223.742 27.1421 223.859 27.3039C223.975 27.4658 224.045 27.6561 224.062 27.8548C224.082 28.0367 224.045 28.2202 223.958 28.3809C223.871 28.5416 223.737 28.6718 223.574 28.7542C223.032 28.9471 222.457 29.0281 221.884 28.9922C221.113 28.9893 220.345 28.9051 219.593 28.7409C218.82 28.5847 218.063 28.3635 217.328 28.0796L216.595 31.5978C217.205 31.838 217.832 32.0325 218.47 32.1798C219.581 32.4356 220.718 32.5533 221.857 32.5303C223.93 32.5303 225.528 32.1401 226.663 31.3664C227.218 30.9916 227.666 30.4788 227.964 29.8782C228.261 29.2777 228.398 28.6101 228.36 27.9407C228.367 27.3659 228.289 26.7932 228.129 26.2411Z" fill="#F13544"/>
<path d="M231.575 24.449V32.1004H235.9V24.449H231.575Z" fill="#F13544"/>
<path d="M60.3035 21.0168C60.2994 21.1754 60.3286 21.3331 60.3893 21.4797C60.4687 21.6407 60.5895 21.7777 60.7392 21.8765C60.9643 22.0341 61.2029 22.1713 61.4523 22.2865C61.7494 22.432 62.1125 22.5907 62.601 22.7693C63.4076 23.0603 64.193 23.4072 64.9514 23.8076C65.291 23.9966 65.6116 24.2181 65.9087 24.4689H57.4316L57.2533 24.3102C56.8605 23.9279 56.5543 23.4656 56.3554 22.9545C56.1241 22.3516 56.0141 21.7088 56.0319 21.0631C56.0074 20.4098 56.1397 19.7602 56.4177 19.1687C56.6957 18.5772 57.1113 18.0612 57.6296 17.6639C58.909 16.7595 60.4568 16.3165 62.02 16.4074C62.9063 16.4073 63.7905 16.4915 64.6609 16.6587C65.3523 16.7807 66.0324 16.9599 66.6943 17.1944L65.9417 20.5737C65.4028 20.3867 64.854 20.23 64.2978 20.1042C63.647 19.9635 62.9828 19.8948 62.3171 19.8992C60.9835 19.8793 60.3035 20.2629 60.3035 21.0168Z" fill="#373D5D"/>
<path d="M84.9293 24.4026H80.5125C80.572 23.2922 80.2935 22.1899 79.7136 21.2415C79.4605 20.8729 79.1182 20.5746 78.7187 20.3745C78.3192 20.1744 77.8756 20.0791 77.4293 20.0974C76.9819 20.0779 76.537 20.1727 76.1362 20.3728C75.7355 20.573 75.3921 20.8719 75.1384 21.2415C74.548 22.1858 74.2643 23.2902 74.3263 24.4026H69.9095C69.8902 23.2745 70.0828 22.1529 70.4773 21.096C70.8219 20.1542 71.3543 19.2924 72.042 18.5632C72.7157 17.8601 73.5271 17.304 74.4254 16.9297C76.3645 16.1536 78.5272 16.1536 80.4663 16.9297C81.3624 17.3008 82.1701 17.8575 82.8364 18.5632C83.516 19.2938 84.0395 20.1557 84.3747 21.096C84.759 22.1553 84.9469 23.2758 84.9293 24.4026Z" fill="#373D5D"/>
<path d="M100.392 22.6436V24.449H88.2305C88.5016 24.1284 88.8226 23.8537 89.1812 23.6356C89.817 23.2527 90.5137 22.982 91.241 22.8354C92.0335 22.6696 92.8412 22.5876 93.6508 22.5907C94.1513 22.5854 94.6518 22.6097 95.1495 22.6635C95.508 22.698 95.8633 22.7599 96.2124 22.8486V22.4188C96.2288 22.0929 96.1788 21.767 96.0653 21.4612C95.9518 21.1553 95.7772 20.8758 95.5522 20.6398C94.8919 20.1271 94.0591 19.8901 93.2283 19.9785C92.4991 19.9782 91.771 20.0313 91.0496 20.1372C90.4176 20.224 89.796 20.3747 89.1944 20.5869L88.6398 17.0952C88.8907 17.0224 89.2076 16.9364 89.5839 16.8505C89.9602 16.7645 90.3762 16.6852 90.8185 16.619C91.2608 16.5529 91.7362 16.4934 92.2313 16.4405C92.7265 16.3876 93.2217 16.3677 93.7234 16.3677C94.8051 16.3392 95.8843 16.4866 96.9188 16.8042C97.6949 17.0458 98.3984 17.4777 98.9655 18.0607C99.4904 18.619 99.8652 19.3016 100.055 20.0447C100.286 20.8914 100.399 21.7659 100.392 22.6436Z" fill="#373D5D"/>
<path d="M125.433 23.4635V24.4489H121.102V23.986C121.179 22.9667 120.995 21.9448 120.568 21.0166C120.368 20.7165 120.09 20.4767 119.764 20.3229C119.439 20.1691 119.077 20.1071 118.719 20.1437C118.39 20.1613 118.064 20.219 117.749 20.3156C117.386 20.4116 117.04 20.5586 116.719 20.7521C116.853 21.2137 116.939 21.6879 116.976 22.1673C117.016 22.6655 117.035 23.1946 117.035 23.7545V24.4489H112.705V23.986C112.781 22.9667 112.597 21.9448 112.17 21.0166C111.97 20.7176 111.694 20.4784 111.369 20.3247C111.045 20.1709 110.685 20.1084 110.328 20.1437C110.045 20.1432 109.763 20.1586 109.483 20.19C109.192 20.19 108.908 20.2495 108.638 20.2892V24.4489H104.313V17.3199C104.676 17.2273 105.112 17.1215 105.634 17.0156C106.155 16.9098 106.65 16.8106 107.198 16.7247C107.746 16.6387 108.321 16.5726 108.902 16.5196C109.483 16.4667 110.05 16.4469 110.612 16.4469C111.526 16.4143 112.438 16.558 113.299 16.8701C113.917 17.1114 114.492 17.4508 115.002 17.8754C115.65 17.4093 116.371 17.054 117.135 16.8239C117.853 16.5867 118.603 16.4597 119.359 16.4469C120.385 16.414 121.406 16.5871 122.363 16.9561C123.105 17.262 123.752 17.7595 124.238 18.3978C124.718 19.0533 125.045 19.808 125.196 20.6066C125.369 21.5487 125.449 22.5057 125.433 23.4635Z" fill="#373D5D"/>
<path d="M134.089 12.3732C134.106 12.7239 134.046 13.0742 133.912 13.3989C133.779 13.7236 133.575 14.0147 133.316 14.2513C132.813 14.69 132.168 14.9317 131.501 14.9317C130.833 14.9317 130.189 14.69 129.685 14.2513C129.195 13.7495 128.92 13.0753 128.92 12.3732C128.92 11.671 129.195 10.9968 129.685 10.495C130.189 10.0563 130.833 9.8147 131.501 9.8147C132.168 9.8147 132.813 10.0563 133.316 10.495C133.575 10.7316 133.779 11.0227 133.912 11.3474C134.046 11.6721 134.106 12.0224 134.089 12.3732Z" fill="#373D5D"/>
<path d="M133.679 16.791H129.355V24.4425H133.679V16.791Z" fill="#373D5D"/>
<path d="M147.682 17.0621L146.956 20.6399C146.567 20.5407 146.111 20.4415 145.59 20.3357C145.036 20.2211 144.472 20.1657 143.906 20.1704C143.579 20.1756 143.253 20.1998 142.929 20.2431C142.641 20.2771 142.357 20.3324 142.077 20.4084V24.4491H137.746V17.6111C138.646 17.3032 139.563 17.047 140.493 16.8439C141.653 16.5893 142.838 16.4672 144.025 16.4802C144.256 16.4802 144.533 16.4802 144.863 16.5199C145.194 16.5595 145.524 16.586 145.854 16.6389C146.184 16.6918 146.514 16.7447 146.837 16.8108C147.126 16.8686 147.409 16.9527 147.682 17.0621Z" fill="#373D5D"/>
<path d="M161.857 22.6437V24.4491H149.722C149.994 24.1284 150.315 23.8537 150.673 23.6356C151.311 23.2515 152.01 22.9808 152.74 22.8354C153.532 22.6693 154.34 22.5873 155.149 22.5908C155.648 22.5854 156.146 22.6097 156.641 22.6635C157 22.698 157.355 22.7599 157.704 22.8487V22.4188C157.72 22.093 157.669 21.7675 157.556 21.4618C157.442 21.1561 157.268 20.8765 157.044 20.6399C156.383 20.1289 155.551 19.8922 154.72 19.9785C153.991 19.9778 153.263 20.0308 152.542 20.1372C151.907 20.2232 151.283 20.3739 150.68 20.587L150.132 17.0952C150.383 17.0224 150.693 16.9365 151.076 16.8505C151.459 16.7645 151.861 16.6852 152.31 16.619C152.759 16.5529 153.222 16.4934 153.717 16.4405C154.212 16.3876 154.707 16.3677 155.215 16.3677C156.297 16.3403 157.376 16.4877 158.411 16.8042C159.186 17.0473 159.889 17.479 160.457 18.0607C160.978 18.6223 161.352 19.3037 161.547 20.0447C161.766 20.8933 161.87 21.7673 161.857 22.6437Z" fill="#373D5D"/>
<path d="M178.97 23.4635V24.4489H174.639V23.986C174.716 22.9654 174.527 21.9423 174.091 21.0167C173.852 20.7035 173.536 20.4582 173.173 20.305C172.811 20.1519 172.415 20.0963 172.024 20.1437C171.714 20.1437 171.364 20.1437 171.041 20.19C170.717 20.2363 170.38 20.2495 170.11 20.2892V24.4489H165.779V17.3199C166.715 17.066 167.665 16.8673 168.624 16.7247C169.837 16.5357 171.062 16.4428 172.288 16.447C173.389 16.4157 174.486 16.5883 175.524 16.9562C176.322 17.2491 177.03 17.7461 177.577 18.3979C178.092 19.0458 178.457 19.8002 178.646 20.6067C178.873 21.5417 178.981 22.5015 178.97 23.4635Z" fill="#373D5D"/>
<path d="M192.273 16.791V20.4018H187.07V24.4424H182.746V12.9818L187.07 12.2808V16.791H192.273Z" fill="#373D5D"/>
<path d="M209.67 16.7976C208.873 19.5002 208.039 22.0507 207.167 24.4491H203.021C203.279 23.6357 203.53 22.7958 203.78 21.9361C204.031 21.0763 204.295 20.1373 204.54 19.2908C204.784 18.4443 205.002 17.5846 205.2 16.8307L209.67 16.7976Z" fill="#373D5D"/>
<path d="M201.291 24.4491H196.934C195.937 21.9446 195.069 19.3908 194.333 16.7976H198.954C199.152 17.5515 199.383 18.3715 199.614 19.2577C199.846 20.1439 200.156 21.0301 200.446 21.903C200.737 22.7759 201.001 23.6357 201.291 24.4491Z" fill="#373D5D"/>
<path d="M221.263 21.0168C221.259 21.1754 221.288 21.3331 221.349 21.4797C221.426 21.642 221.547 21.7795 221.698 21.8765C221.924 22.0341 222.162 22.1713 222.411 22.2865C222.709 22.432 223.072 22.5907 223.56 22.7693C224.367 23.0603 225.152 23.4072 225.911 23.8076C226.25 23.9966 226.571 24.2181 226.868 24.4689H218.391L218.213 24.3102C217.82 23.9279 217.514 23.4656 217.315 22.9545C217.083 22.3516 216.973 21.7088 216.991 21.0631C216.967 20.4098 217.099 19.7602 217.377 19.1687C217.655 18.5772 218.071 18.0612 218.589 17.6639C219.868 16.7595 221.416 16.3165 222.979 16.4074C223.866 16.4073 224.75 16.4915 225.62 16.6587C226.312 16.7807 226.992 16.9599 227.654 17.1944L226.901 20.5737C226.362 20.3867 225.813 20.23 225.257 20.1042C224.606 19.9635 223.942 19.8948 223.276 19.8992C221.936 19.8793 221.263 20.2629 221.263 21.0168Z" fill="#F25560"/>
<path d="M235.9 16.7975H241.247V20.4348H235.9V24.4755H231.575V16.0106C231.53 15.1532 231.655 14.2954 231.942 13.4863C232.228 12.6772 232.671 11.9327 233.246 11.2954C234.359 10.1314 236.01 9.54948 238.197 9.54948C238.95 9.5451 239.701 9.62719 240.435 9.79417C240.968 9.91647 241.491 10.0778 242 10.2769L241.162 13.7422C240.757 13.5589 240.331 13.4256 239.894 13.3455C239.479 13.2623 239.056 13.218 238.633 13.2132C238.183 13.2006 237.735 13.2747 237.313 13.4314C236.984 13.5552 236.692 13.7626 236.467 14.0332C236.257 14.2964 236.108 14.6038 236.032 14.9326C235.942 15.305 235.898 15.687 235.9 16.0701V16.7975Z" fill="#F25560"/>
</g>
<defs>
<clipPath id="clip0_2050_156">
<rect width="242" height="47" fill="white"/>
</clipPath>
</defs>
</svg>
