<svg width="50" height="50" viewBox="0 0 50 50" fill="none" xmlns="http://www.w3.org/2000/svg">
<path d="M24.3744 5.84432C24.7733 5.67006 25.2268 5.67006 25.6256 5.84432C33.3731 9.22937 40.7159 13.3674 47.5614 18.1657C48.0568 18.513 48.3072 19.115 48.2043 19.7111C48.1013 20.3073 47.6635 20.7904 47.0803 20.9514C45.6534 21.3452 44.2388 21.7694 42.837 22.2215C37.1473 24.0565 31.6702 26.3653 26.4523 29.1016L26.4455 29.1052C26.2089 29.2292 25.9728 29.3542 25.7373 29.48C25.2772 29.7259 24.7248 29.7259 24.2646 29.48C24.0269 29.353 23.7886 29.2268 23.5497 29.1016C20.9696 27.7486 18.3261 26.5001 15.6249 25.3617V24.8957C15.6249 24.6221 15.7653 24.3792 15.9827 24.2476C19.1183 22.3479 22.3527 20.5951 25.6764 18.9986C26.4543 18.625 26.782 17.6915 26.4083 16.9137C26.0347 16.1358 25.1012 15.8081 24.3234 16.1817C20.9082 17.8221 17.585 19.6231 14.3634 21.5748C13.4189 22.147 12.7839 23.0836 12.575 24.1328C10.7939 23.4477 8.98944 22.8096 7.16299 22.2205C5.76126 21.7685 4.34662 21.3452 2.91976 20.9514C2.3366 20.7904 1.89875 20.3072 1.79579 19.7111C1.69283 19.1149 1.94326 18.5129 2.43866 18.1657C9.28416 13.3674 16.6269 9.22936 24.3744 5.84432Z" fill="#010B40"/>
<path d="M27.21 32.2363C32.291 29.5214 37.6292 27.2264 43.1786 25.397C43.4583 28.3446 43.6369 31.3214 43.7109 34.3239C43.7267 34.9681 43.3455 35.556 42.7508 35.8043C36.811 38.2842 31.1611 41.3209 25.8664 44.8493C25.3417 45.199 24.6582 45.199 24.1334 44.8493C18.8388 41.3209 13.1889 38.2842 7.24903 35.8043C6.65438 35.556 6.27313 34.9681 6.289 34.3239C6.36298 31.3211 6.54157 28.3441 6.82128 25.3964C8.74003 26.0288 10.6335 26.717 12.4999 27.4589V30.1055C11.5658 30.6459 10.9374 31.6558 10.9374 32.8125C10.9374 33.8444 11.4375 34.7595 12.2087 35.3286C12.0222 36.1215 11.7462 36.8975 11.3806 37.6406C12.3238 38.0857 13.2588 38.5451 14.1855 39.0186C14.7133 37.9452 15.096 36.8185 15.3335 35.6681C16.4259 35.1811 17.1874 34.0857 17.1874 32.8125C17.1874 31.6558 16.5589 30.6459 15.6249 30.1055V28.7623C18.0653 29.8286 20.4558 30.988 22.7919 32.2363C24.1723 32.9738 25.8297 32.9738 27.21 32.2363Z" fill="#010B40"/>
<path d="M9.29618 40.5464C10.1694 39.6732 10.8645 38.6897 11.3806 37.6406C12.3238 38.0857 13.2588 38.5451 14.1855 39.0186C13.5218 40.3683 12.6283 41.6337 11.5059 42.7561C10.8957 43.3663 9.90637 43.3663 9.29618 42.7561C8.68598 42.1459 8.68598 41.1566 9.29618 40.5464Z" fill="#010B40"/>
</svg>
