<svg width="50" height="50" viewBox="0 0 50 50" fill="none" xmlns="http://www.w3.org/2000/svg">
<path d="M23.4375 9.44347C20.2803 7.42248 16.526 6.25 12.5 6.25C10.1287 6.25 7.84908 6.65699 5.7293 7.40622C5.10494 7.6269 4.6875 8.2172 4.6875 8.87941V38.5669C4.6875 39.0741 4.9337 39.5498 5.34783 39.8426C5.76196 40.1355 6.29247 40.2091 6.7707 40.0401C8.56065 39.4074 10.4884 39.0625 12.5 39.0625C16.6563 39.0625 20.4651 40.5359 23.4375 42.9911V9.44347Z" fill="#010B40"/>
<path d="M26.5625 42.9911C29.5349 40.5359 33.3437 39.0625 37.5 39.0625C39.5116 39.0625 41.4393 39.4074 43.2293 40.0401C43.7075 40.2091 44.238 40.1355 44.6522 39.8426C45.0663 39.5498 45.3125 39.0741 45.3125 38.5669V8.87941C45.3125 8.2172 44.8951 7.6269 44.2707 7.40622C42.1509 6.65699 39.8713 6.25 37.5 6.25C33.474 6.25 29.7197 7.42248 26.5625 9.44347V42.9911Z" fill="#010B40"/>
</svg>
