<svg width="50" height="50" viewBox="0 0 50 50" fill="none" xmlns="http://www.w3.org/2000/svg">
<path d="M10.2356 5.53798C14.5577 4.97683 18.9645 4.6875 23.4381 4.6875C27.9112 4.6875 32.3176 4.97678 36.6393 5.53781C40.644 6.05769 43.4965 9.41535 43.734 13.302C43.0552 13.0753 42.3358 12.9249 41.5834 12.8625C38.6905 12.6224 35.7653 12.5 32.8124 12.5C29.8597 12.5 26.9344 12.6224 24.0416 12.8625C19.1285 13.2702 15.625 17.4264 15.625 22.1004V31.0285C15.625 34.5507 17.6139 37.7763 20.6933 39.3289L15.1674 44.8549C14.7205 45.3017 14.0484 45.4354 13.4646 45.1936C12.8807 44.9517 12.5 44.382 12.5 43.75V35.3553C11.7427 35.2742 10.9879 35.1847 10.2356 35.0871C6.05138 34.5438 3.125 30.9027 3.125 26.7972V13.8279C3.125 9.72233 6.05137 6.08122 10.2356 5.53798Z" fill="#010B40"/>
<path d="M32.8124 15.625C29.946 15.625 27.107 15.7438 24.3001 15.9768C21.0932 16.2429 18.75 18.9642 18.75 22.1004V31.0285C18.75 34.1695 21.0999 36.8923 24.3108 37.1544C26.9022 37.366 29.5209 37.4817 32.1633 37.498L37.9576 43.2924C38.4045 43.7392 39.0766 43.8729 39.6604 43.6311C40.2443 43.3892 40.625 42.8195 40.625 42.1875V37.2086C40.8549 37.1913 41.0846 37.1734 41.314 37.1546C44.525 36.8926 46.875 34.1698 46.875 31.0287V22.1005C46.875 18.9642 44.5318 16.2429 41.3249 15.9768C38.5179 15.7438 35.6789 15.625 32.8124 15.625Z" fill="#010B40"/>
</svg>
