<svg width="150" height="150" viewBox="0 0 150 150" fill="none" xmlns="http://www.w3.org/2000/svg">
<path d="M57.9621 34.735C63.4683 31.1107 70.0712 29 77.1701 29C96.4061 29 112 44.4976 112 63.6148C112 77.0888 109.419 89.9633 104.72 101.776M48.1107 44.5255C44.4639 49.9977 42.3401 56.5598 42.3401 63.6148C42.3401 70.3886 40.3838 76.7078 37 82.0443M46.2359 98.4696C54.638 89.2554 59.7551 77.0292 59.7551 63.6148C59.7551 54.0562 67.552 46.3074 77.1701 46.3074C86.7881 46.3074 94.585 54.0562 94.585 63.6148C94.585 66.0467 94.4856 68.4551 94.2876 70.8361M77.1715 63.6148C77.1715 80.7958 70.874 96.5151 60.4478 108.617M91.2552 87.4035C88.7113 96.2651 84.7819 104.546 79.7145 112" stroke="#010B40" stroke-width="6" stroke-linecap="round" stroke-linejoin="round"/>
</svg>
