<svg width="150" height="150" viewBox="0 0 150 150" fill="none" xmlns="http://www.w3.org/2000/svg">
<path d="M92.5712 81.5582C93.0528 83.6264 93.3076 85.7831 93.3076 88C93.3076 103.464 80.9094 116 65.6153 116V93.6015M92.5712 81.5582C109.805 68.8252 121 48.2341 121 25C98.0221 25.001 77.6591 36.3207 65.0671 53.7455M92.5712 81.5582C84.6855 87.3844 75.5356 91.5654 65.6153 93.6015M65.0671 53.7455C63.0205 53.258 60.8862 53 58.6923 53C43.3983 53 31 65.536 31 81H53.1572M65.0671 53.7455C59.3054 61.7186 55.1708 70.9699 53.1572 81M65.6153 93.6015C65.1381 93.6995 64.659 93.7925 64.1782 93.8804C59.9925 90.5246 56.1995 86.6895 52.8806 82.4572C52.9678 81.9697 53.06 81.4839 53.1572 81M42.8242 92.1568C37.7483 95.9855 34.4615 102.105 34.4615 109C34.4615 110.105 34.546 111.191 34.7088 112.25C35.7564 112.415 36.8298 112.5 37.9231 112.5C44.7426 112.5 50.7946 109.177 54.5811 104.044M96.7692 56.5C96.7692 60.366 93.6696 63.5 89.8461 63.5C86.0226 63.5 82.923 60.366 82.923 56.5C82.923 52.634 86.0226 49.5 89.8461 49.5C93.6696 49.5 96.7692 52.634 96.7692 56.5Z" stroke="#010B40" stroke-width="6" stroke-linecap="round" stroke-linejoin="round"/>
</svg>
