<svg width="50" height="50" viewBox="0 0 50 50" fill="none" xmlns="http://www.w3.org/2000/svg">
<path fill-rule="evenodd" clip-rule="evenodd" d="M17.1875 14.0625C17.1875 9.74778 20.6853 6.25 25 6.25C29.3147 6.25 32.8125 9.74778 32.8125 14.0625C32.8125 18.3772 29.3147 21.875 25 21.875C20.6853 21.875 17.1875 18.3772 17.1875 14.0625Z" fill="#010B40"/>
<path fill-rule="evenodd" clip-rule="evenodd" d="M32.8125 20.3125C32.8125 16.8607 35.6107 14.0625 39.0625 14.0625C42.5143 14.0625 45.3125 16.8607 45.3125 20.3125C45.3125 23.7643 42.5143 26.5625 39.0625 26.5625C35.6107 26.5625 32.8125 23.7643 32.8125 20.3125Z" fill="#010B40"/>
<path fill-rule="evenodd" clip-rule="evenodd" d="M4.6875 20.3125C4.6875 16.8607 7.48572 14.0625 10.9375 14.0625C14.3893 14.0625 17.1875 16.8607 17.1875 20.3125C17.1875 23.7643 14.3893 26.5625 10.9375 26.5625C7.48572 26.5625 4.6875 23.7643 4.6875 20.3125Z" fill="#010B40"/>
<path fill-rule="evenodd" clip-rule="evenodd" d="M13.1455 31.4948C15.6413 27.5925 20.0174 25 25 25C29.9832 25 34.3598 27.5932 36.8554 31.4963C38.5807 34.1946 39.3272 37.4483 38.977 40.6207C38.9223 41.1164 38.6342 41.5563 38.2016 41.8045C34.3113 44.0367 29.8023 45.3125 25 45.3125C20.1977 45.3125 15.6887 44.0367 11.7984 41.8045C11.3658 41.5563 11.0777 41.1164 11.023 40.6207C10.6728 37.4477 11.4196 34.1935 13.1455 31.4948Z" fill="#010B40"/>
<path d="M10.5881 29.6952C10.563 29.7337 10.5381 29.7724 10.5133 29.8111C8.5019 32.956 7.58142 36.7014 7.86399 40.3938C6.59723 40.2014 5.36812 39.8919 4.18839 39.4764L3.9489 39.3921C3.512 39.2382 3.20672 38.8414 3.16998 38.3797L3.14984 38.1266C3.13337 37.9196 3.125 37.7106 3.125 37.5C3.125 33.3024 6.43551 29.8779 10.5881 29.6952Z" fill="#010B40"/>
<path d="M42.1367 40.3937C42.4192 36.7021 41.4992 32.9574 39.4886 29.8129C39.4634 29.7735 39.4381 29.7343 39.4127 29.6952C43.5649 29.8784 46.875 33.3026 46.875 37.5C46.875 37.7106 46.8666 37.9196 46.8502 38.1266L46.83 38.3797C46.7933 38.8414 46.488 39.2382 46.0511 39.3921L45.8116 39.4764C44.6321 39.8918 43.4032 40.2012 42.1367 40.3937Z" fill="#010B40"/>
</svg>
